<svg xmlns="http://www.w3.org/2000/svg" viewBox="0 0 416 540"><g fill="none" stroke="#918f90" stroke-width="2"><path d="M98.29 0C79.4 1.56 65.98 13.34 63.33 31.92c-7.07 49.48 65.72 57.77 71.61 10.58C137.77 19.83 124.22.64 100.54 0M234.3 0c-45.12 2.85-47.32 70.15-2.49 73.77 48.74 3.95 55.53-69.59 5.76-73.77M0 396q6.98 6.25 16.52 3.5 8.28-2.4 26.8-8.2c3.22-1.01 6.15-1.2 7.15 2.57a.6.6 0 0 0 .63.44l.93-.07a.62.62 0 0 0 .54-.8l-5.38-17.22q-.13-.41-.56-.43-.83-.03-1.17.52c-1.49 2.37 2.86 5.08-3.45 7.21q-6.15 2.07-28.44 8.83-7.35 2.23-13.57-.21M372.27 1.64c-7.86 18.4-15.2 37.08-22.81 55.59-2.68 6.54-5.31 10.65-12.49 10.99a.75.75 0 0 0-.72.75v2.53q0 .75.75.75h25.38q.62 0 .62-.63v-2.6q0-.61-.61-.64c-3.48-.21-8.83-.44-7.57-5.08q1.8-6.66 5.74-16.57.19-.48.7-.48h19.97a.62.61-11.8 0 1 .56.36q5.84 12.89 6.72 16.88c1 4.48-3.06 4.66-6.51 4.79q-.5.02-.5.52v2.8q0 .61.6.61l29.91.06a.57.56-13.4 0 0 .51-.82q-.5-.98-.11-1.98a.87.87 0 0 0-.81-1.19c-9.58 0-11.26-7.26-14.25-14.86q-10.43-26.46-20.25-51.7a2.61 2.61 0 0 0-4.83-.08" vector-effect="non-scaling-stroke"/><path d="m61.14 53.3-2.91-.47q-.63-.1-.79.52c-2.4 9.26-6.53 13.58-16.45 13.83-7.09.18-15.45 1.77-15.46-8.19-.01-12.82.07-25.64-.27-38.46q-.15-5.81.6-9.71c.99-5.1 6.38-4.96 10.39-5.29q.5-.05.5-.54V2.25q0-.5-.5-.5H3.37q-.62 0-.62.63v2.6q0 .6.61.64C13.1 6.15 13.48 9.1 13.5 18q.05 19.84-.12 39.69c-.08 9.99-2.48 9.63-11.07 10.78a.58.58 0 0 0-.5.61l.13 2.66a.54.54 0 0 0 .54.51h54.55a.99.98 5.7 0 0 .97-.78l3.6-17.5q.11-.58-.46-.67M170.85 35.05l-14.44-25.5a2.12 2.12 0 0 1 1.55-3.14l5.48-.78a.65.65 0 0 0 .56-.64V2.25q0-.5-.5-.5h-29.45q-.47 0-.5.46l-.18 2.72q-.04.52.47.62c4 .81 7.08.67 9.69 4.96q8.97 14.72 17.2 29.89c2.53 4.66 1.37 19.06 1.05 21.86-.66 5.68-5.83 5.69-10.95 6.14a.46.46 0 0 0-.43.47l.08 2.91q.02.47.49.47h34.78q.5 0 .5-.5v-2.76a.61.61 0 0 0-.57-.61c-5.27-.41-10.85-.46-11.3-6.45q-.7-9.39-.13-18.79c.18-2.88 1.24-4.9 2.57-7.33q7.05-12.84 15.28-24.99 3.63-5.36 10.59-5.05.56.03.56-.54V2.25q0-.5-.5-.5h-25.87q-.63 0-.63.63v2.59q0 .58.57.66 2.4.35 4.8.71 1.6.23 2.09.77.84.92.06 2.68-7 15.84-12.2 25.26-.36.65-.72 0M300.48 19.56c.05-9.83-.77-13.32 10.69-13.98q.58-.03.58-.62V2.38q0-.63-.63-.63H278.5q-.75 0-.75.75v2.51a.67.67 0 0 0 .65.67c8.54.3 10.04 2.36 10.1 10.57q.15 21.87-.15 43.74c-.1 7.28-3.9 8.24-10.68 8.32q-.67.01-.67.69v2.75q0 .5.5.5h54.54q.81 0 .98-.79l3.59-17.4q.13-.62-.49-.72l-2.83-.47q-.61-.1-.77.49c-2.22 7.9-5.61 13.06-14.46 13.7-3.98.29-13.01.98-15.66-1.83-2.39-2.54-1.92-8.27-1.93-11.55q-.07-17.05.01-34.12M152 101.32q-1.34-2.24.83-3.31 5.13-2.52 8.61 2.3a.62.62 0 0 0 .89.12l2.72-2.19q.37-.3.07-.68c-4.23-5.23-16.31-6.83-18.14 1.63-2.31 10.72 16.46 6.3 13.71 12.52-1.76 3.98-8.91 1.52-11.07-1.1q-.39-.47-.88-.12l-2.95 2.09q-.52.37-.09.83c4.94 5.3 19.49 7.14 19.86-3.02.25-6.98-8.28-7.04-12.86-8.52a1.32 1.31-6.6 0 1-.7-.55M260.89 109.39c-3.68 9.56-14.65 1.77-10.98-7.88 1.87-4.93 8.94-6.08 10.36-.43q.15.61.75.44l3.27-.91q.53-.15.36-.68-2.1-6.35-8.39-6.7c-16.16-.89-15.91 25.81.02 24.43q5.99-.52 8.8-6.5.24-.51-.28-.73l-3.18-1.35q-.53-.22-.73.31M321.03 97.84c3.08-1.33 6.04.08 6.91 3.36a.53.53 0 0 0 .66.37l3.35-.99q.54-.15.35-.68-2.35-6.53-9.04-6.68c-13.9-.32-14.91 21.58-3.76 24.07q9.32 2.08 13.23-6.15.22-.47-.26-.68l-3.25-1.38q-.46-.19-.65.26-2.29 5.24-7 3.9c-6.67-1.9-6.31-12.9-.54-15.4M378.77 116.56q.09.21.4.41.45.28.98.28h1.84q.49 0 .49-.49l.06-11.62q0-.64-.64-.64h-8.65q-.5 0-.5.5v2.75q0 .5.5.5h4.73a.53.52 7.6 0 1 .51.66c-2.7 9.81-15.26 3.27-11.48-7.22 2.08-5.75 8.96-6.08 11.14-.27a.6.58 66.9 0 0 .8.33l3.13-1.47q.46-.22.25-.69c-3.76-8.5-14.81-8.28-19.27-.52-5.65 9.81 2.93 23 14.82 17.16q.62-.31.89.33M400.575 117.898a12.38 11.26 90.9 0 0 11.454-12.201 12.38 11.26 90.9 0 0-11.065-12.556 12.38 11.26 90.9 0 0-11.453 12.202 12.38 11.26 90.9 0 0 11.064 12.555M18.24 103.68c-.19 3.26 1.35 7.92-2.67 9.35-3.98 1.41-7.1-.27-7.22-4.63q-.19-7.05-.07-14.11 0-.54-.53-.54H4.51q-.54 0-.54.54.03 7.86.21 15.71c.22 9.28 13.82 10.2 17.6 3.64 2.02-3.49.99-15.01.95-19.39q0-.5-.5-.5h-3.21q-.49 0-.49.49-.01 4.74-.29 9.44M36.88 117.25a.3.3 0 0 0 .3-.31l-.45-15.01a.3.3 0 0 1 .56-.17l9.59 15.35a.3.3 0 0 0 .26.14h3.31a.3.3 0 0 0 .3-.3v-22.9a.3.3 0 0 0-.3-.3h-3.69a.3.3 0 0 0-.3.31l.45 14.95a.3.3 0 0 1-.56.17L36.8 93.89a.3.3 0 0 0-.26-.14h-3.49a.3.3 0 0 0-.3.3v22.9a.3.3 0 0 0 .3.3h3.83M64.99 94.05a.31.31 0 0 0-.31-.31h-3.62a.31.31 0 0 0-.31.31v22.88a.31.31 0 0 0 .31.31h3.62a.31.31 0 0 0 .31-.31V94.05M81.37 111.02a.31.31 0 0 1-.6.01l-4.79-17.05a.31.31 0 0 0-.29-.23h-4.05a.31.31 0 0 0-.29.4l6.69 22.88a.31.31 0 0 0 .3.22h5.48a.31.31 0 0 0 .29-.23l6.5-22.88a.31.31 0 0 0-.3-.39h-3.95a.31.31 0 0 0-.3.23l-4.69 17.04M100.99 107.27a.34.34 0 0 1 .35-.35l10.56.31a.34.34 0 0 0 .35-.34v-3.3a.34.34 0 0 0-.34-.34h-10.4a.34.34 0 0 1-.34-.33L101 98.1a.34.34 0 0 1 .34-.35h11.67a.34.34 0 0 0 .34-.35l-.09-3.32a.34.34 0 0 0-.34-.33H97.09a.34.34 0 0 0-.34.34v22.82a.34.34 0 0 0 .34.34h16.82a.34.34 0 0 0 .34-.34v-3.32a.34.34 0 0 0-.34-.34h-12.5a.34.34 0 0 1-.34-.33l-.08-5.65M135.47 107.54c4.82-2.53 5.44-9.3 1.21-12.22-3.23-2.22-9.87-1.7-13.98-1.52q-.45.02-.45.47v22.48q0 .5.5.5H126q.5 0 .5-.5v-7.5q0-.75.75-.75h2.53q.53 0 .79.47l4.24 7.83q.24.45.76.45h3.92q.62 0 .32-.55l-4.57-8.4q-.27-.49.23-.76M178.49 94.05a.31.31 0 0 0-.31-.31h-3.62a.31.31 0 0 0-.31.31v22.88a.31.31 0 0 0 .31.31h3.62a.31.31 0 0 0 .31-.31V94.05M196 98.34a.35.35 0 0 1 .34-.35l5.57-.21a.35.35 0 0 0 .34-.35V94.1a.35.35 0 0 0-.35-.35h-16.44a.35.35 0 0 0-.35.37l.2 3.42a.35.35 0 0 0 .35.33l5.49-.04a.35.35 0 0 1 .35.35v18.72a.35.35 0 0 0 .35.35h3.8a.35.35 0 0 0 .35-.35V98.34M216.91 102.85l-4.49-8.64q-.23-.46-.74-.46h-3.67q-.79 0-.42.69 2.94 5.53 6.04 11.01c1.98 3.49 1.5 7.36 1.32 11.19q-.03.61.58.61h3.41q.58 0 .57-.58c-.04-3.57-.69-7.76 1.12-11q3.21-5.7 6.4-11.42.27-.5-.3-.5h-3.78q-.66 0-.96.58l-4.45 8.52q-.32.6-.63 0M285.63 106.5a.37.37 0 0 1 .37.37v10.01a.37.37 0 0 0 .37.37h3.76a.37.37 0 0 0 .37-.37V94.12a.37.37 0 0 0-.37-.37h-3.76a.37.37 0 0 0-.37.37v8.01a.37.37 0 0 1-.37.37h-9.06a.37.37 0 0 1-.37-.37l.01-8.01a.37.37 0 0 0-.37-.37h-3.72a.37.37 0 0 0-.37.37v22.76a.37.37 0 0 0 .37.37h3.79a.37.37 0 0 0 .37-.37l-.09-10.01a.37.37 0 0 1 .37-.37h9.07M304.74 94.17a.42.42 0 0 0-.42-.42h-3.4a.42.42 0 0 0-.42.42v22.66a.42.42 0 0 0 .42.42h3.4a.42.42 0 0 0 .42-.42V94.17M342.13 113.09a.46.46 0 0 1 .44-.34h8.11a.46.46 0 0 1 .45.33l1.11 3.84a.46.46 0 0 0 .45.33h3.76a.46.46 0 0 0 .43-.61l-7.68-22.58a.46.46 0 0 0-.44-.31h-4.34a.46.46 0 0 0-.44.31l-7.6 22.58a.46.46 0 0 0 .44.61h3.82a.46.46 0 0 0 .44-.34l1.05-3.82M377.87 150.41q14.14-.4 28.32-.14c3.28.06 5.33.86 4.73 4.6a.54.54 0 0 0 .53.63h1.05q.75 0 .75-.75v-17.37q0-.63-.62-.63h-1q-.63 0-.61.63c.14 5.38-3.4 4.91-7.82 5.06q-13.56.46-27.14.68-5.17.09-4.73-5 .05-.57-.52-.59l-.9-.04q-.63-.02-.63.61l-.09 11.96q0 .37.34.52l30.98 13.58a.42.42 0 0 1 .01.76l-30.69 14.18q-.58.27-.58.91v11.28q0 .61.6.71.62.1 1.02-.21.37-.29.42-1.17.22-4.59 5.02-4.53 15.51.2 30.95 1.89 3.83.41 3.72 4.57a.64.63 10.3 0 0 .44.63q.94.32 1.43-.06.42-.32.42-1.33-.04-6.98-.01-13.99 0-.55-.55-.55h-1.22a.59.59 0 0 0-.59.67c.61 4.44-1.83 5.59-5.82 5.6q-13.1.02-26.06-.35a.26.26 0 0 1-.1-.5l32.71-14.25a1.51 1.51 0 0 0 0-2.77l-33.85-14.76q-1.03-.45.09-.48M18.5 152.47v11.62q0 .58-.55.79L7.47 168.8a1.53 1.52-13.9 0 1-2.04-1.22l-.31-2.29a.78.77 2.1 0 0-.62-.66l-.92-.17q-.58-.12-.58.47v16.62q0 .44.36.68 1.37.96 1.68-.46c1.03-4.69 3.12-5.12 7.77-6.86q17.34-6.49 33.73-12.43a1.88 1.88 0 0 0 .02-3.52q-19.39-7.39-38.79-15.15-2.59-1.04-2.45-4.74a.72.72 0 0 0-.64-.74l-1-.1a.62.61 3 0 0-.68.61v13.66q0 .75.75.75h.67q.44 0 .52-.43l.5-2.93a1.87 1.86 14.2 0 1 2.43-1.45l10.19 3.41q.44.15.44.62M328.02 246.98l17.35-16.3q.38-.36.38-.88v-15.21a.36.36 0 0 0-.6-.26l-36.21 32.82a1.37 1.36-65.7 0 1-.91.35h-17.04a.26.26 0 0 1-.17-.45l54.55-49.95q.38-.35.38-.86v-18.51a.33.33 0 0 0-.55-.24l-76.01 69.73q-.3.28-.71.28h-17.49a.27.26 23.8 0 1-.18-.46l94.49-86.57q.45-.41.45-1.02v-18.58a.34.34 0 0 0-.56-.25L227.87 247.08q-.46.42-1.09.42h-18.22q-.82 0-.21-.55L326.4 140.39q.43-.39-.15-.39h-19a1.89 1.86-65.7 0 0-1.26.49L208.01 231a.33.33 0 0 1-.55-.24l.13-15.92q.01-.56.42-.94l79.17-73.23a.27.27 0 0 0-.18-.47l-19.56.07a1.28 1.25-66.1 0 0-.87.35l-58.48 53.99q-.39.36-.39-.18l.08-15.79q0-.53.38-.89l39.62-36.85q.71-.65-.26-.65h-19.48q-.52 0-.91.33l-19.01 15.99a.38.38 0 0 1-.62-.29v-15.71q0-.43-.43-.43l-135.28.04q-.87 0-.87.87-.3 101.93-.14 203.21.03 16.86.3 19.99c5.29 61.15 85.56 95.06 135.2 108.79q1.97.54 3.93.01c47.47-12.94 124.19-45.44 134.42-101.38q1.13-6.2 1.13-19.93-.03-51.79 0-103.67 0-.57-.57-.57h-16.97q-.76 0-.2-.52M10.44 190.9c-3.95-.05-5.3-1.39-5.41-5.31q-.01-.59-.6-.59h-.89q-.48 0-.49.48c-.22 14.36-2.33 32.64 11.08 41.23 13.38 8.58 31.29 1.39 32.51-15.31q.77-10.54.22-25.33-.03-.57-.59-.57h-1a.42.42 0 0 0-.42.45c.27 3.45-1.64 4.82-4.94 4.9q-12.67.28-29.47.05M397.52 227.09l.31-11.56q.02-.55.54-.75l10.19-3.8a1.43 1.4-48.1 0 1 .79-.05c2.3.58.83 2.8 2.05 4.04q.57.57 1.42.19.43-.19.43-.66v-16.47a.58.56-86 0 0-.48-.57l-.79-.13q-.83-.13-.9.71-.32 3.97-3.63 5.21-19.34 7.26-37.81 13.97a1.91 1.9 45.5 0 0-.03 3.57q16.71 6.39 33.41 12.94c4.49 1.75 7.24 2.34 8.11 6.68q.14.7.48.95.51.37 1.19.09.45-.18.45-.66V227q0-.5-.5-.5h-.96a.7.69-87.3 0 0-.69.63l-.19 2.13q-.26 2.83-2.94 1.92l-9.92-3.33a.79.78-80.5 0 1-.53-.76M378.19 250.6c-3.88-.04-7.13-.13-6.94-5.02q.03-.58-.55-.58h-.95q-.5 0-.5.5v18.17q0 .69.68.59l.72-.1q.58-.07.55-.65-.22-5.16 5.3-5.21 14.75-.13 29.5 0 5.31.05 5.12 5.19-.02.52.47.7.74.26 1.23-.13.43-.36.43-1.27.01-8.53-.01-17.08a.71.71 0 0 0-.71-.71h-1.01a.42.42 0 0 0-.42.46c.26 3.02-1.22 4.88-4.37 5q-9.95.37-28.54.14M32.94 257.91a7.48 7.48 0 0 0-7.48-7.48 7.48 7.48 0 0 0-7.48 7.48 7.48 7.48 0 0 0 7.48 7.48 7.48 7.48 0 0 0 7.48-7.48M391.54 284.22c-5.14-12.51-22.27-10.68-22.26 3.54q0 10.61-.06 21.23 0 .76.76.76h.75a.59.58 86.9 0 0 .58-.65c-.41-3.45 1.58-4.8 4.82-4.91q16.03-.54 32.11.09.6.02 1.05.42 1.98 1.74 1.73 4.46a.78.77-87.6 0 0 .77.84h.96q.5 0 .5-.5v-18.26q0-.52-.51-.5l-1.1.04a.57.56 88 0 0-.54.59q.19 5.12-4.83 5.15-5.74.04-11.57-.05a.66.66 0 0 1-.63-.52c-.51-2.41.18-3.98 2.39-5.29 8.75-5.18 19.01-8.59 17-21.42a.76.76 0 0 0-1.42-.23c-3.35 6.38-13.57 12.09-19.83 15.45q-.47.25-.67-.24M36.97 290.92 4.59 305.01a1.55 1.55 0 0 0 0 2.84l33.98 14.77a.33.33 0 0 1-.13.63H10.01c-3.21 0-5.3-.93-4.7-4.55a.66.66 0 0 0-.57-.76l-1.13-.14q-.61-.08-.61.54v17.82q0 .68.67.61l1.04-.11q.61-.06.52-.66c-.55-3.69 1.54-4.71 4.85-4.87q14.95-.68 29.92-.92 5.1-.08 4.75 4.87-.05.67.62.67h1q.63 0 .63-.63v-11.58q0-.52-.48-.73L15.47 309.2a.32.32 0 0 1 0-.58l31.05-14.39a.85.84-12.9 0 0 .48-.76v-11.36q0-.64-.64-.62l-.89.04a.8.79 86 0 0-.76.88c.4 3.87-1.9 4.91-5.35 4.86q-9.69-.13-28.93-1.67-3.58-.29-4.99-2.29a1.35 1.33 33.5 0 1-.22-1.05q.23-1.18-.55-1.95a.98.98 0 0 0-1.67.7v14.74q0 .5.5.5h.96a.59.59 0 0 0 .59-.6q-.03-2.68 1.41-4.82a1.23 1.2-77.8 0 1 .8-.53c9.11-1.58 20.15-.26 29.6.09a.28.28 0 0 1 .11.53M411.574 345.394a23.33 22.53 28.7 0 0-9.645-30.966 23.33 22.53 28.7 0 0-31.283 8.558 23.33 22.53 28.7 0 0 9.645 30.966 23.33 22.53 28.7 0 0 31.283-8.558M46.61 360.83c-12.48-5-25.26-9.56-37.88-14.28q-3.61-1.35-3.81-5.4-.04-.65-.68-.65h-.88a.64.63-.4 0 0-.64.64l.17 13.81a.56.56 0 0 0 .56.55h.95q.43 0 .5-.42l.54-3.11a1.68 1.67-76.2 0 1 2.16-1.31l10.36 3.31q.54.17.54.73v11.58q0 .55-.52.76l-10.02 3.91q-1.89.74-2.35-1.23l-.53-2.21q-.12-.52-.65-.61l-.44-.07q-.74-.12-.74.63v16.75q0 .52.52.52h1.04a.68.68 0 0 0 .68-.7c-.05-3.15 1.95-4.66 4.84-5.81q18.43-7.32 36.23-13.91a1.87 1.86-44.2 0 0 .05-3.48M401.95 360.51c2.05 1.07 5.74 2.99 6.3 5.4.71 3.07.11 14.16-2.26 16.51-1.94 1.92-4.91 1-7.37.7q-12.72-1.59-25.37-3.62-5.32-.86-4.48-5.81a.7.7 0 0 0-.53-.79l-.85-.19q-.52-.12-.6.42l-2.61 18.14a.86.86 0 0 0 .85.98h.7q.7 0 .72-.7.11-4.83 4.55-4.43 7.58.66 27.75 3.87 4.05.65 6.15 1.67a1.06 1.05-79.8 0 1 .6.87l.35 4.06q.05.48.5.65l.62.23q.64.23.73-.44l5.06-35.46a.69.69 0 0 0-.45-.75l-9.39-3.51a1.21 1.2 68.9 0 0-.97 2.2M363.94 436.81c10.19 9.48 26.77 8.04 34.25-4.15q6.07-9.9 5.23-22.26-.03-.45-.46-.56-5.74-1.43-11.27-3.57-3.14-1.21-2.4-3.94a.69.68 15.9 0 0-.47-.84l-.92-.26a.63.63 0 0 0-.78.41l-5.49 16.71q-.16.49.31.72l.89.44q.54.26.79-.28c1.26-2.75 1.97-6.51 6.2-5.29 2.84.83 11.12 2.39 10.23 6.57q-3.26 15.23-19.13 13.81c-7.9-.71-16.64-4.47-20.04-11.78-3.85-8.28 1.79-20.85 12.67-19.55q.66.08.79-.58l.2-1.06q.11-.59-.47-.72l-9.62-2.12q-.51-.11-.8.32c-7.71 11.4-10.92 27.56.29 37.98M63.474 420.766a23.3 22.52-8.5 0 0-26.373-18.829 23.3 22.52-8.5 0 0-19.715 25.717 23.3 22.52-8.5 0 0 26.373 18.829 23.3 22.52-8.5 0 0 19.715-25.717M65.63 455.13c2.36 1.22 3.19 2.79 2.62 5.55-2.19 10.66-4.98 18.7 5.19 26.44a.94.94 0 0 0 1.42-1.16c-2.75-5.64-.67-17.74.75-24.93q.11-.52.62-.38 10.94 3.01 15.44-6.17c3.03-6.17-1.85-11.93-6.45-15.7q-6.91-5.65-13.75-11.34-.47-.4-.84.1l-.64.87a.54.53-55 0 0 .13.77q4.05 2.72 1.09 6.53-4.74 6.09-18.75 22.52c-2.32 2.72-4.69 4.44-7.68 1.39q-.49-.51-1.02-.04l-.64.56a.7.69-45.7 0 0 .01 1.06q6.62 5.43 13.17 10.95.57.48.99.54.9.15 1.03-1.14a1.39 1.38-70.2 0 0-.6-1.28c-2.36-1.61-2-3.49-.46-5.63q3.56-4.93 7.68-9.39.3-.33.69-.12M354.02 455.81a7.48 7.48 0 0 0-7.48-7.48 7.48 7.48 0 0 0-7.48 7.48 7.48 7.48 0 0 0 7.48 7.48 7.48 7.48 0 0 0 7.48-7.48M302.84 463.32c3.02-1.63 4.55-.36 6.16 2.19q10 15.84 15.48 25.01 2.86 4.79-1.47 7.06-.59.31-.29.9l.4.8q.3.6.87.25l15.58-9.61a.5.5 0 0 0 .07-.79l-.93-.83a.67.66 46.8 0 0-.86-.03q-3.52 2.78-5.8-.56-5.18-7.58-16.51-26.74-2.62-4.43 1.72-6.56a.53.53 0 0 0 .22-.76l-.55-.86a.64.63 58 0 0-.88-.21l-15.26 9.45q-.43.26-.26.73.26.74.91.92.48.13 1.4-.36M111.87 462.37c4.99 2.32 12.99 5.73 9.16 13.03q-.27.52.21.86l1.03.74a.53.52-59.8 0 0 .78-.21l4.06-8.5a.61.6-62.1 0 0-.24-.79l-25.58-14.54q-.68-.39-1.04.3l-.44.85a.56.55 23.9 0 0 .3.77c3.77 1.43 3.24 4.22 1.58 7.23q-7 12.7-14.3 25.26-2.79 4.8-7.42 1.65a.54.54 0 0 0-.71.08l-.69.75a.64.64 0 0 0 .15.99l27.91 15.89a.67.66-54.2 0 0 .82-.14l6.77-7.6q.42-.47-.02-.92l-.59-.59a.64.63 51.1 0 0-.78-.09l-6.43 4.04q-.53.33-1.14.17c-3.15-.84-13.82-4.66-11.44-9.55q2.35-4.8 6.94-12.47.27-.45.74-.23c3.49 1.67 10.8 4.18 7.84 9.36a1.24 1.24 0 0 0 .54 1.74l.57.27q.57.28.89-.27l6.48-11.41q.33-.58-.26-.88l-1.15-.59a.6.59-64.3 0 0-.81.29c-2.65 5.88-9.2.54-12.51-1.49a.55.54-58.9 0 1-.18-.74l7.25-12.72q.6-1.06 1.71-.54M300.27 488.9q2.17 1.05 3.04 3.29a.64.64 0 0 0 .92.32l1.08-.65q.57-.33.27-.92l-5.79-11.27a1.22 1.22 0 0 0-2.31.56c.01 2.21 2.27 3.9-.67 5.81q-3.53 2.29-7.44 4.01-.56.25-.83-.3l-6.91-13.44a.63.63 0 0 1 .22-.82q4.95-3.32 10.68-4.96.45-.13.89.03c2.28.87 4.1 3.73 5.49 4.18q.78.25 1.42-.43a.79.79 0 0 0 .1-.96l-4.75-7.74q-.29-.48-.79-.22l-26.35 13.51q-.6.31-.21.85l.65.9q.37.52.89.14 3.52-2.55 5.72.91 3.72 5.88 15.26 29.99a1.25 1.24-47.6 0 1 .04.96q-1.06 2.8-3.96 3.9a.42.42 0 0 0-.22.59l.59 1.08a.55.55 0 0 0 .73.23l28.56-14.64q.49-.24.34-.77l-2.66-9.9q-.2-.74-.91-.45l-1.19.47a.63.63 0 0 0-.36.77c1.27 4.08.75 7.96-3.03 10.45-2.7 1.78-9.16 6.2-11.57 1.93q-3.5-6.23-6.66-12.63-.25-.51.27-.76l8.37-4.02q.54-.26 1.08 0M136.68 482.86l1.11 36.17a1.35 1.35 0 0 0 2.31.92l26.35-26.19a.3.3 0 0 1 .5.32q-5.03 13.24-10.37 26.49-1.61 4.01-5.2 2.89-.87-.27-1.23-.21-.83.13-.86 1.13a.81.81 0 0 0 .51.78l16.3 6.54q.71.29.93-.45l.25-.86q.17-.59-.42-.74c-3.85-.93-3.91-3.47-2.75-6.77q7.25-20.7 10.45-28.32 1.78-4.24 6.1-2.07a.75.74 23.8 0 0 1.03-.39l.35-.93q.2-.52-.32-.73l-11.05-4.43q-.47-.18-.83.17l-24.06 23.85a.43.43 0 0 1-.73-.28l-1.71-34.14q-.02-.53-.52-.73l-10.65-4.28q-.73-.29-.83.49l-.1.71q-.08.59.45.85c5.58 2.73 2.98 5.93 1.3 9.96q-5.22 12.51-11.71 24.46c-1.36 2.51-3.25 3.11-5.85 2.08a.64.64 0 0 0-.8.31l-.38.74q-.3.6.33.85l13.69 5.47q.55.22.85-.3l.34-.58q.29-.51-.21-.83c-1.68-1.07-5.05-2.66-4.05-5.29q5.12-13.55 11.16-26.73a.17.17 0 0 1 .32.07" vector-effect="non-scaling-stroke"/><path d="M278.02 505.01c-.94-15.32-14.2-23.62-28.73-18.5q-4.91 1.73-21.53 8.4-.67.27-.25.85l.58.81q.32.46.83.2c2.77-1.41 4.63-.14 5.76 2.52q5.71 13.53 10.81 27.33c1.3 3.52 1.48 6.28-2.79 7.34a.63.63 0 0 0-.44.81l.31.92q.21.64.84.39c14.26-5.52 35.82-11.18 34.61-31.07M214.21 520.44a7.48 7.48 0 0 0-7.48-7.48 7.48 7.48 0 0 0-7.48 7.48 7.48 7.48 0 0 0 7.48 7.48 7.48 7.48 0 0 0 7.48-7.48M87.94 64.81q8.4 6.31 17.85 3.73c19.1-5.23 17.77-34.29 11.97-48.23C113.45 9.94 103.35 1.42 91.51 5.9c-20.27 7.66-18.26 47.88-3.57 58.91M217.72 14.82c-9.89 16.55-5.05 58.86 23.32 53.94 25.78-4.47 21.01-62.88-5.99-63.9-7.6-.28-13.37 3.33-17.33 9.96M362.65 40.36a.32.32 0 0 0 .3.43l16.44-.08a.32.32 0 0 0 .3-.43l-8.34-22.53a.32.32 0 0 0-.6.01l-8.1 22.6M401.052 113.616a8.15 6.69 88.3 0 0 6.445-8.344 8.15 6.69 88.3 0 0-6.929-7.948 8.15 6.69 88.3 0 0-6.445 8.344 8.15 6.69 88.3 0 0 6.929 7.948M126.5 98.05l.02 6.38a.33.33 0 0 0 .33.33l4.43-.01a3.5 3.08-.2 0 0 3.49-3.09v-.88a3.5 3.08-.2 0 0-3.51-3.07l-4.43.01a.33.33 0 0 0-.33.33M346.52 99.02l-2.84 9.22q-.15.51.38.51h5.12q.5 0 .36-.48l-2.64-9.25a.2.2 0 0 0-.38 0M35.51 157.88l-13.06-4.6q-.7-.24-.7.5v9.12q0 .56.53.38l13.23-4.71q.96-.35 0-.69M122.76 225.74c5.24-2.21 7.15-7.66 5.11-12.81-3.75-9.47-19.54-9.7-24.87-1.51-3.29 5.05-1.15 11.57 4.4 14.32q.69.34-.01.65-8.21 3.52-7.28 11.72c1.46 12.89 22.99 13.72 28.84 3.83 3.53-5.95.3-13.27-6.17-15.46a.4.4 0 0 1-.02-.74M194.39 245.24c12.05-8.87 9.99-39.9-9.1-39.27-18.49.62-20.65 29.42-9.19 38.82 5.02 4.11 13.09 4.27 18.29.45M78.64 215.59a.38.38 0 0 0 .39.44l3.33-.12a.38.38 0 0 1 .39.38v30.83a.38.38 0 0 0 .38.38h9.24a.38.38 0 0 0 .38-.38v-39.49a.38.38 0 0 0-.38-.38h-11.9a.38.38 0 0 0-.38.31l-1.45 8.03M151.84 216.98a.35.35 0 0 1 .3.53l-17.21 29.46a.35.35 0 0 0 .3.53h11.49a.35.35 0 0 0 .31-.18l21.95-39.3a.35.35 0 0 0-.31-.52h-32.48a.35.35 0 0 0-.35.35l.08 8.83a.35.35 0 0 0 .35.35l15.57-.05M111.02 353.47q-.19-6.67 1.36-13.09c1.41-5.86 5.1-11.37 5.18-18.36.12-9.85-8.5-14.04-17.11-12.09q-2.09.47-3.51 2.06-.51.57.26.6c9.41.29.26 20.11-1.39 24.65q-2.74 7.56-2.91 10.58c-.59 10.56 7.43 17.57 17.91 15.72a.56.56 0 0 1 .65.45l.79 4.26q.09.5-.41.5c-6.63.01-12.26-.67-12.3 7.92q-.07 13-.03 24.12a6.99 6.99 0 0 0 6.99 6.96h11.82a.77.77 0 0 0 .74-.99q-1.84-6.17-8-8.21-.56-.18-.56-.77v-11.26q0-.51.5-.51 6.12-.04 12.23-.01c6.9.03 10.75-8.59 12.38-14.31q.14-.47.62-.41l4.74.54q.71.08.39.72l-7.33 14.28q-.25.49.15.86l15.34 14.61q.35.34.33.82l-.14 3.61q-.02.53.51.53h15.06q4.3 0 1.29-3.07c-2.74-2.8-6.14-4.14-8.62-6.8q-4.72-5.06-9.32-10.05a2.28 2.28 0 0 1 1.08-3.74c3.92-1.06 8.09-2.41 11.01-5.24 11.02-10.67 2.73-27.93-13.33-24.45a.89.89 0 0 1-1.01-1.21l7.15-17.5q.2-.51-.11-.96l-5.14-7.5a.29.29 0 0 1 .4-.41l5.86 3.79q.44.28.96.19l17.76-3.22a.58.57 76.2 0 1 .66.41c.85 3.04 2.86 14.69 8.81 11.48q.41-.23.39-.7c-.36-6.44 1.28-13.53-2.9-18.32-4.24-4.87-14.26-5.18-20.38-4.67-1.69.14-3-.74-3.14-2.45a.58.57-2.3 0 1 .58-.62l10.39.12q.49.01.86-.3l9.3-7.68a1.54 1.53 24 0 1 .92-.35c5.47-.19 12.32-.92 11.47-8.44q-.17-1.57-1.86-1.43c-5.61.48-11.98-.95-17.24 1.53q-7.67 3.6-14.52 8.65-.43.31-.49-.22-.95-8.06 4.73-12.9c3.67-3.12 10.3-3.39 12.3-8.27a.53.53 0 0 0-.67-.7l-9.22 3.23q-.46.16-.57-.32c-1.76-7.96 15.54-4.98 14.01-14.58q-.07-.46-.53-.41l-10.3 1.05a.99.97-23.4 0 1-.83-.32c-4.27-4.86-9.01-2.42-13.61.29a.41.41 0 0 1-.62-.41l1.56-11.97q.14-1.05-.65-.34c-3.96 3.55-7.54 8.93-10.46 12.9-12.15 16.52-20.12 45.1-17.34 65.45q.08.52-.39.78-9.59 5.27-12.16 15.94-.3 1.24-.34-.04M303.66 353.75q-2.65-10.84-12.29-16.21-.44-.25-.38-.75c2.22-18.44-3.1-38.37-11.11-54.99-4.15-8.59-10.18-16.22-16.51-23.42a.52.52 0 0 0-.91.42l1.71 12.22q.07.51-.39.27c-4.97-2.63-9.44-5.48-14.04-.45q-.36.39-.88.34l-10.05-1.05a.71.7 5.7 0 0-.78.63c-.98 9.16 15.69 6.72 14.12 14.18q-.11.56-.66.38l-8.83-2.99a.79.78 79.4 0 0-.85 1.25c3.78 4.56 8.96 4.49 12.89 8.2q4.93 4.66 4.13 12.1-.06.59-.56.27c-4.38-2.82-13.86-9.8-18.78-9.88q-6.86-.1-13.91.02-.54 0-.68.52c-2.26 8.05 5.6 8.77 11.44 9.26a1.43 1.43 0 0 1 .78.32l9.12 7.57q.43.36.99.35l10.48-.09q.67 0 .57.66c-.29 1.91-1.95 2.51-3.83 2.38-5.8-.41-14.45-.07-18.86 3.7-5.03 4.29-3.91 11.98-3.81 19.52a.69.68-80.7 0 0 .45.63c6.19 2.18 7.88-7.87 8.72-11.57q.13-.58.72-.47l17.68 3.26a1.22 1.2 34 0 0 .87-.16l5.93-3.77q1.08-.69.36.37l-4.95 7.32q-.42.62-.13 1.32l7.07 17.34a.74.74 0 0 1-.79 1.01c-4.88-.73-13.59.11-16.01 5.03q-6.38 12.96 4 20.81c2.75 2.08 6.47 3 9.82 4.25a2.1 2.1 0 0 1 .81 3.39q-4.71 5.12-9.63 10.39c-2.75 2.93-8.75 4.56-9.31 8.95a.59.59 0 0 0 .59.67h16.4a.66.66 0 0 0 .66-.71l-.25-3.29a.96.95-23.6 0 1 .3-.76l15.67-14.92q.31-.29.11-.68l-7.47-14.52a.39.39 0 0 1 .31-.56l4.82-.5q.48-.04.63.41c1.4 4.22 4.03 10.5 8.2 13.1 3.53 2.21 12.34 1.14 16.66 1.21a.49.49 0 0 1 .48.49v11.23q0 .54-.51.7-6.31 2.09-8.2 8.36a.73.73 0 0 0 .7.94h12.04a6.93 6.93 0 0 0 6.93-6.92q.01-11.71-.28-25.34c-.16-7.39-6.97-6.72-12.07-6.77q-.54-.01-.45-.55l.65-3.91q.08-.47.56-.49c2.58-.08 5.49.24 7.81-.43 9.84-2.85 12.36-14.03 8.81-22.59-2.14-5.17-12.72-28.35-2.69-28.08a.49.49 0 0 0 .29-.9c-7.32-4.87-19.51-2.03-20.57 7.99-.79 7.37 2.54 13.56 4.96 20.28q1.53 4.26 1.31 13.69a.07.06-52.5 0 1-.13.02M206.3 327.17l-18.12 18.08a1.47 1.44-22.9 0 0-.43 1.03v4.47q0 .75.75.75h1.5q.5 0 .5-.5v-3.81a1.23 1.23 0 0 1 .36-.87l16.26-16.64q.44-.45.89 0l16.38 16.76q.36.36.36.87V351q0 .5.5.5h1.52a.53.53 0 0 0 .53-.53v-5.21a.56.54-68 0 0-.16-.39l-17.47-17.69q-.36-.36-.36-.87l-.35-54.81a.84.82-20.3 0 1 .32-.67c3.84-3.05-2.72-7.55-4.08-2.61-.29 1.04.25 1.83.92 2.56q.38.4.38.96v54.45a.68.67-22.8 0 1-.2.48" vector-effect="non-scaling-stroke"/><path d="M177.42 357.57q.34.15.34.51c-.02 8.74-1.29 20.74 1.31 28.85 9.14 28.57 48.44 28.52 57.1-.14 2.36-7.82 1.31-19.46 1.34-28.57q0-.51.46-.74c2.78-1.33 3.6-5.73-.48-5.69q-3.27.03-5.98-.11-.91-.05-1.08.83c-.68 3.44-1.5 6.59-5.88 5.29q-3.27-.98-2.56-5.17a.97.96-85.2 0 0-.95-1.13h-27.08a.77.77 0 0 0-.76.9c.41 2.35-.43 4.9-2.98 5.56-4.4 1.14-4.92-2.7-5.28-5.86q-.06-.53-.6-.53l-7.4.02a2.27 2.26 83.9 0 0-2.2 2.74q.49 2.33 2.68 3.24M42.8 198.83q-15.55-.26-31.53-.02c-2.87.04-5.02.53-5.32 3.68-1.41 15.12 12.09 21.03 24.95 18.37 11.14-2.3 14.21-10.42 13.17-20.86a1.3 1.29-2.2 0 0-1.27-1.17M393.65 216.53l-13.1 4.61a.35.34-44.4 0 0-.01.65l13.32 4.74q.39.14.39-.27l.01-9.3q0-.64-.61-.43M119.58 217.24a4.47 4.47 0 0 0-4.47-4.47 4.47 4.47 0 0 0-4.47 4.47 4.47 4.47 0 0 0 4.47 4.47 4.47 4.47 0 0 0 4.47-4.47M120.02 235.34a4.9 4.9 0 0 0-4.9-4.9 4.9 4.9 0 0 0-4.9 4.9 4.9 4.9 0 0 0 4.9 4.9 4.9 4.9 0 0 0 4.9-4.9M185.51 239.27a12.25 6.5 90 0 0 6.5-12.25 12.25 6.5 90 0 0-6.5-12.25 12.25 6.5 90 0 0-6.5 12.25 12.25 6.5 90 0 0 6.5 12.25M162.72 273.93c-.66-3.59-4.76-.73-6.57.12q-.96.45.1.45h5.99q.58 0 .48-.57M259.13 274.16l-5.31-2.13a.61.61 0 0 0-.74.24l-.97 1.56a.44.44 0 0 0 .38.68l6.59-.04a.16.16 0 0 0 .05-.31M372.77 296.48l17.88.04a.82.82 0 0 0 .82-.82l.01-2.91a8.68 8.53.1 0 0-8.67-8.55h-2.16a8.68 8.53.1 0 0-8.69 8.51l-.01 2.91a.82.82 0 0 0 .82.82M371.1 333.15c-2.76 19.98 45.18 19.9 39.82-2.32-3.26-13.55-37.45-14.82-39.82 2.32M22.07 355.23a.3.3 0 0 0-.4.29l.16 9.63a.3.3 0 0 0 .4.28l13.52-5.03a.3.3 0 0 0-.01-.57l-13.67-4.6M31.88 440.78c11.7 1.78 32.85-14.84 25.54-27.47-9.7-16.79-43.87 7.28-33.16 22.54q2.97 4.22 7.62 4.93M78.84 438.62l-11.18 13.23a1.18 1.18 0 0 0 .14 1.66l1.6 1.35a9.19 9.08-49.8 0 0 12.87-1.15l.84-1a9.19 9.08-49.8 0 0-1-12.88l-1.61-1.35a1.18 1.18 0 0 0-1.66.14M269.09 503.22c-4.49-13.11-16.22-18.47-28.25-9.97q-.42.29-.23.77 6.21 15.26 12.93 30.3c1.02 2.29 2.86 3.36 5.22 2.44q16.22-6.32 10.33-23.54" vector-effect="non-scaling-stroke"/></g><path fill="#fff" d="M0 0h98.29C79.4 1.56 65.98 13.34 63.33 31.92c-7.07 49.48 65.72 57.77 71.61 10.58C137.77 19.83 124.22.64 100.54 0H234.3c-45.12 2.85-47.32 70.15-2.49 73.77 48.74 3.95 55.53-69.59 5.76-73.77H416v540H0V396q6.98 6.25 16.52 3.5 8.28-2.4 26.8-8.2c3.22-1.01 6.15-1.2 7.15 2.57a.6.6 0 0 0 .63.44l.93-.07a.62.62 0 0 0 .54-.8l-5.38-17.22q-.13-.41-.56-.43-.83-.03-1.17.52c-1.49 2.37 2.86 5.08-3.45 7.21q-6.15 2.07-28.44 8.83-7.35 2.23-13.57-.21V0Zm372.27 1.64c-7.86 18.4-15.2 37.08-22.81 55.59-2.68 6.54-5.31 10.65-12.49 10.99a.75.75 0 0 0-.72.75v2.53q0 .75.75.75h25.38q.62 0 .62-.63v-2.6q0-.61-.61-.64c-3.48-.21-8.83-.44-7.57-5.08q1.8-6.66 5.74-16.57.19-.48.7-.48h19.97a.62.61-11.8 0 1 .56.36q5.84 12.89 6.72 16.88c1 4.48-3.06 4.66-6.51 4.79q-.5.02-.5.52v2.8q0 .61.6.61l29.91.06a.57.56-13.4 0 0 .51-.82q-.5-.98-.11-1.98a.87.87 0 0 0-.81-1.19c-9.58 0-11.26-7.26-14.25-14.86q-10.43-26.46-20.25-51.7a2.61 2.61 0 0 0-4.83-.08ZM61.14 53.3l-2.91-.47q-.63-.1-.79.52c-2.4 9.26-6.53 13.58-16.45 13.83-7.09.18-15.45 1.77-15.46-8.19-.01-12.82.07-25.64-.27-38.46q-.15-5.81.6-9.71c.99-5.1 6.38-4.96 10.39-5.29q.5-.05.5-.54V2.25q0-.5-.5-.5H3.37q-.62 0-.62.63v2.6q0 .6.61.64C13.1 6.15 13.48 9.1 13.5 18q.05 19.84-.12 39.69c-.08 9.99-2.48 9.63-11.07 10.78a.58.58 0 0 0-.5.61l.13 2.66a.54.54 0 0 0 .54.51h54.55a.99.98 5.7 0 0 .97-.78l3.6-17.5q.11-.58-.46-.67Zm109.71-18.25-14.44-25.5a2.12 2.12 0 0 1 1.55-3.14l5.48-.78a.65.65 0 0 0 .56-.64V2.25q0-.5-.5-.5h-29.45q-.47 0-.5.46l-.18 2.72q-.04.52.47.62c4 .81 7.08.67 9.69 4.96q8.97 14.72 17.2 29.89c2.53 4.66 1.37 19.06 1.05 21.86-.66 5.68-5.83 5.69-10.95 6.14a.46.46 0 0 0-.43.47l.08 2.91q.02.47.49.47h34.78q.5 0 .5-.5v-2.76a.61.61 0 0 0-.57-.61c-5.27-.41-10.85-.46-11.3-6.45q-.7-9.39-.13-18.79c.18-2.88 1.24-4.9 2.57-7.33q7.05-12.84 15.28-24.99 3.63-5.36 10.59-5.05.56.03.56-.54V2.25q0-.5-.5-.5h-25.87q-.63 0-.63.63v2.59q0 .58.57.66 2.4.35 4.8.71 1.6.23 2.09.77.84.92.06 2.68-7 15.84-12.2 25.26-.36.65-.72 0Zm129.63-15.49c.05-9.83-.77-13.32 10.69-13.98q.58-.03.58-.62V2.38q0-.63-.63-.63H278.5q-.75 0-.75.75v2.51a.67.67 0 0 0 .65.67c8.54.3 10.04 2.36 10.1 10.57q.15 21.87-.15 43.74c-.1 7.28-3.9 8.24-10.68 8.32q-.67.01-.67.69v2.75q0 .5.5.5h54.54q.81 0 .98-.79l3.59-17.4q.13-.62-.49-.72l-2.83-.47q-.61-.1-.77.49c-2.22 7.9-5.61 13.06-14.46 13.7-3.98.29-13.01.98-15.66-1.83-2.39-2.54-1.92-8.27-1.93-11.55q-.07-17.05.01-34.12ZM152 101.32q-1.34-2.24.83-3.31 5.13-2.52 8.61 2.3a.62.62 0 0 0 .89.12l2.72-2.19q.37-.3.07-.68c-4.23-5.23-16.31-6.83-18.14 1.63-2.31 10.72 16.46 6.3 13.71 12.52-1.76 3.98-8.91 1.52-11.07-1.1q-.39-.47-.88-.12l-2.95 2.09q-.52.37-.09.83c4.94 5.3 19.49 7.14 19.86-3.02.25-6.98-8.28-7.04-12.86-8.52a1.32 1.31-6.6 0 1-.7-.55Zm108.89 8.07c-3.68 9.56-14.65 1.77-10.98-7.88 1.87-4.93 8.94-6.08 10.36-.43q.15.61.75.44l3.27-.91q.53-.15.36-.68-2.1-6.35-8.39-6.7c-16.16-.89-15.91 25.81.02 24.43q5.99-.52 8.8-6.5.24-.51-.28-.73l-3.18-1.35q-.53-.22-.73.31Zm60.14-11.55c3.08-1.33 6.04.08 6.91 3.36a.53.53 0 0 0 .66.37l3.35-.99q.54-.15.35-.68-2.35-6.53-9.04-6.68c-13.9-.32-14.91 21.58-3.76 24.07q9.32 2.08 13.23-6.15.22-.47-.26-.68l-3.25-1.38q-.46-.19-.65.26-2.29 5.24-7 3.9c-6.67-1.9-6.31-12.9-.54-15.4Zm57.74 18.72q.09.21.4.41.45.28.98.28h1.84q.49 0 .49-.49l.06-11.62q0-.64-.64-.64h-8.65q-.5 0-.5.5v2.75q0 .5.5.5h4.73a.53.52 7.6 0 1 .51.66c-2.7 9.81-15.26 3.27-11.48-7.22 2.08-5.75 8.96-6.08 11.14-.27a.6.58 66.9 0 0 .8.33l3.13-1.47q.46-.22.25-.69c-3.76-8.5-14.81-8.28-19.27-.52-5.65 9.81 2.93 23 14.82 17.16q.62-.31.89.33Zm21.805 1.338a12.38 11.26 90.9 0 0 11.454-12.201 12.38 11.26 90.9 0 0-11.065-12.556 12.38 11.26 90.9 0 0-11.453 12.202 12.38 11.26 90.9 0 0 11.064 12.555ZM18.24 103.68c-.19 3.26 1.35 7.92-2.67 9.35-3.98 1.41-7.1-.27-7.22-4.63q-.19-7.05-.07-14.11 0-.54-.53-.54H4.51q-.54 0-.54.54.03 7.86.21 15.71c.22 9.28 13.82 10.2 17.6 3.64 2.02-3.49.99-15.01.95-19.39q0-.5-.5-.5h-3.21q-.49 0-.49.49-.01 4.74-.29 9.44Zm18.64 13.57a.3.3 0 0 0 .3-.31l-.45-15.01a.3.3 0 0 1 .56-.17l9.59 15.35a.3.3 0 0 0 .26.14h3.31a.3.3 0 0 0 .3-.3v-22.9a.3.3 0 0 0-.3-.3h-3.69a.3.3 0 0 0-.3.31l.45 14.95a.3.3 0 0 1-.56.17L36.8 93.89a.3.3 0 0 0-.26-.14h-3.49a.3.3 0 0 0-.3.3v22.9a.3.3 0 0 0 .3.3h3.83Zm28.11-23.2a.31.31 0 0 0-.31-.31h-3.62a.31.31 0 0 0-.31.31v22.88a.31.31 0 0 0 .31.31h3.62a.31.31 0 0 0 .31-.31V94.05Zm16.38 16.97a.31.31 0 0 1-.6.01l-4.79-17.05a.31.31 0 0 0-.29-.23h-4.05a.31.31 0 0 0-.29.4l6.69 22.88a.31.31 0 0 0 .3.22h5.48a.31.31 0 0 0 .29-.23l6.5-22.88a.31.31 0 0 0-.3-.39h-3.95a.31.31 0 0 0-.3.23l-4.69 17.04Zm19.62-3.75a.34.34 0 0 1 .35-.35l10.56.31a.34.34 0 0 0 .35-.34v-3.3a.34.34 0 0 0-.34-.34h-10.4a.34.34 0 0 1-.34-.33L101 98.1a.34.34 0 0 1 .34-.35h11.67a.34.34 0 0 0 .34-.35l-.09-3.32a.34.34 0 0 0-.34-.33H97.09a.34.34 0 0 0-.34.34v22.82a.34.34 0 0 0 .34.34h16.82a.34.34 0 0 0 .34-.34v-3.32a.34.34 0 0 0-.34-.34h-12.5a.34.34 0 0 1-.34-.33l-.08-5.65Zm34.48.27c4.82-2.53 5.44-9.3 1.21-12.22-3.23-2.22-9.87-1.7-13.98-1.52q-.45.02-.45.47v22.48q0 .5.5.5H126q.5 0 .5-.5v-7.5q0-.75.75-.75h2.53q.53 0 .79.47l4.24 7.83q.24.45.76.45h3.92q.62 0 .32-.55l-4.57-8.4q-.27-.49.23-.76Zm43.02-13.49a.31.31 0 0 0-.31-.31h-3.62a.31.31 0 0 0-.31.31v22.88a.31.31 0 0 0 .31.31h3.62a.31.31 0 0 0 .31-.31V94.05ZM196 98.34a.35.35 0 0 1 .34-.35l5.57-.21a.35.35 0 0 0 .34-.35V94.1a.35.35 0 0 0-.35-.35h-16.44a.35.35 0 0 0-.35.37l.2 3.42a.35.35 0 0 0 .35.33l5.49-.04a.35.35 0 0 1 .35.35v18.72a.35.35 0 0 0 .35.35h3.8a.35.35 0 0 0 .35-.35V98.34Zm20.91 4.51-4.49-8.64q-.23-.46-.74-.46h-3.67q-.79 0-.42.69 2.94 5.53 6.04 11.01c1.98 3.49 1.5 7.36 1.32 11.19q-.03.61.58.61h3.41q.58 0 .57-.58c-.04-3.57-.69-7.76 1.12-11q3.21-5.7 6.4-11.42.27-.5-.3-.5h-3.78q-.66 0-.96.58l-4.45 8.52q-.32.6-.63 0Zm68.72 3.65a.37.37 0 0 1 .37.37v10.01a.37.37 0 0 0 .37.37h3.76a.37.37 0 0 0 .37-.37V94.12a.37.37 0 0 0-.37-.37h-3.76a.37.37 0 0 0-.37.37v8.01a.37.37 0 0 1-.37.37h-9.06a.37.37 0 0 1-.37-.37l.01-8.01a.37.37 0 0 0-.37-.37h-3.72a.37.37 0 0 0-.37.37v22.76a.37.37 0 0 0 .37.37h3.79a.37.37 0 0 0 .37-.37l-.09-10.01a.37.37 0 0 1 .37-.37h9.07Zm19.11-12.33a.42.42 0 0 0-.42-.42h-3.4a.42.42 0 0 0-.42.42v22.66a.42.42 0 0 0 .42.42h3.4a.42.42 0 0 0 .42-.42V94.17Zm37.39 18.92a.46.46 0 0 1 .44-.34h8.11a.46.46 0 0 1 .45.33l1.11 3.84a.46.46 0 0 0 .45.33h3.76a.46.46 0 0 0 .43-.61l-7.68-22.58a.46.46 0 0 0-.44-.31h-4.34a.46.46 0 0 0-.44.31l-7.6 22.58a.46.46 0 0 0 .44.61h3.82a.46.46 0 0 0 .44-.34l1.05-3.82Zm35.74 37.32q14.14-.4 28.32-.14c3.28.06 5.33.86 4.73 4.6a.54.54 0 0 0 .53.63h1.05q.75 0 .75-.75v-17.37q0-.63-.62-.63h-1q-.63 0-.61.63c.14 5.38-3.4 4.91-7.82 5.06q-13.56.46-27.14.68-5.17.09-4.73-5 .05-.57-.52-.59l-.9-.04q-.63-.02-.63.61l-.09 11.96q0 .37.34.52l30.98 13.58a.42.42 0 0 1 .01.76l-30.69 14.18q-.58.27-.58.91v11.28q0 .61.6.71.62.1 1.02-.21.37-.29.42-1.17.22-4.59 5.02-4.53 15.51.2 30.95 1.89 3.83.41 3.72 4.57a.64.63 10.3 0 0 .44.63q.94.32 1.43-.06.42-.32.42-1.33-.04-6.98-.01-13.99 0-.55-.55-.55h-1.22a.59.59 0 0 0-.59.67c.61 4.44-1.83 5.59-5.82 5.6q-13.1.02-26.06-.35a.26.26 0 0 1-.1-.5l32.71-14.25a1.51 1.51 0 0 0 0-2.77l-33.85-14.76q-1.03-.45.09-.48ZM18.5 152.47v11.62q0 .58-.55.79L7.47 168.8a1.53 1.52-13.9 0 1-2.04-1.22l-.31-2.29a.78.77 2.1 0 0-.62-.66l-.92-.17q-.58-.12-.58.47v16.62q0 .44.36.68 1.37.96 1.68-.46c1.03-4.69 3.12-5.12 7.77-6.86q17.34-6.49 33.73-12.43a1.88 1.88 0 0 0 .02-3.52q-19.39-7.39-38.79-15.15-2.59-1.04-2.45-4.74a.72.72 0 0 0-.64-.74l-1-.1a.62.61 3 0 0-.68.61v13.66q0 .75.75.75h.67q.44 0 .52-.43l.5-2.93a1.87 1.86 14.2 0 1 2.43-1.45l10.19 3.41q.44.15.44.62Zm309.52 94.51 17.35-16.3q.38-.36.38-.88v-15.21a.36.36 0 0 0-.6-.26l-36.21 32.82a1.37 1.36-65.7 0 1-.91.35h-17.04a.26.26 0 0 1-.17-.45l54.55-49.95q.38-.35.38-.86v-18.51a.33.33 0 0 0-.55-.24l-76.01 69.73q-.3.28-.71.28h-17.49a.27.26 23.8 0 1-.18-.46l94.49-86.57q.45-.41.45-1.02v-18.58a.34.34 0 0 0-.56-.25L227.87 247.08q-.46.42-1.09.42h-18.22q-.82 0-.21-.55L326.4 140.39q.43-.39-.15-.39h-19a1.89 1.86-65.7 0 0-1.26.49L208.01 231a.33.33 0 0 1-.55-.24l.13-15.92q.01-.56.42-.94l79.17-73.23a.27.27 0 0 0-.18-.47l-19.56.07a1.28 1.25-66.1 0 0-.87.35l-58.48 53.99q-.39.36-.39-.18l.08-15.79q0-.53.38-.89l39.62-36.85q.71-.65-.26-.65h-19.48q-.52 0-.91.33l-19.01 15.99a.38.38 0 0 1-.62-.29v-15.71q0-.43-.43-.43l-135.28.04q-.87 0-.87.87-.3 101.93-.14 203.21.03 16.86.3 19.99c5.29 61.15 85.56 95.06 135.2 108.79q1.97.54 3.93.01c47.47-12.94 124.19-45.44 134.42-101.38q1.13-6.2 1.13-19.93-.03-51.79 0-103.67 0-.57-.57-.57h-16.97q-.76 0-.2-.52ZM10.44 190.9c-3.95-.05-5.3-1.39-5.41-5.31q-.01-.59-.6-.59h-.89q-.48 0-.49.48c-.22 14.36-2.33 32.64 11.08 41.23 13.38 8.58 31.29 1.39 32.51-15.31q.77-10.54.22-25.33-.03-.57-.59-.57h-1a.42.42 0 0 0-.42.45c.27 3.45-1.64 4.82-4.94 4.9q-12.67.28-29.47.05Zm387.08 36.19.31-11.56q.02-.55.54-.75l10.19-3.8a1.43 1.4-48.1 0 1 .79-.05c2.3.58.83 2.8 2.05 4.04q.57.57 1.42.19.43-.19.43-.66v-16.47a.58.56-86 0 0-.48-.57l-.79-.13q-.83-.13-.9.71-.32 3.97-3.63 5.21-19.34 7.26-37.81 13.97a1.91 1.9 45.5 0 0-.03 3.57q16.71 6.39 33.41 12.94c4.49 1.75 7.24 2.34 8.11 6.68q.14.7.48.95.51.37 1.19.09.45-.18.45-.66V227q0-.5-.5-.5h-.96a.7.69-87.3 0 0-.69.63l-.19 2.13q-.26 2.83-2.94 1.92l-9.92-3.33a.79.78-80.5 0 1-.53-.76Zm-19.33 23.51c-3.88-.04-7.13-.13-6.94-5.02q.03-.58-.55-.58h-.95q-.5 0-.5.5v18.17q0 .69.68.59l.72-.1q.58-.07.55-.65-.22-5.16 5.3-5.21 14.75-.13 29.5 0 5.31.05 5.12 5.19-.02.52.47.7.74.26 1.23-.13.43-.36.43-1.27.01-8.53-.01-17.08a.71.71 0 0 0-.71-.71h-1.01a.42.42 0 0 0-.42.46c.26 3.02-1.22 4.88-4.37 5q-9.95.37-28.54.14Zm-345.25 7.31a7.48 7.48 0 0 0-7.48-7.48 7.48 7.48 0 0 0-7.48 7.48 7.48 7.48 0 0 0 7.48 7.48 7.48 7.48 0 0 0 7.48-7.48Zm358.6 26.31c-5.14-12.51-22.27-10.68-22.26 3.54q0 10.61-.06 21.23 0 .76.76.76h.75a.59.58 86.9 0 0 .58-.65c-.41-3.45 1.58-4.8 4.82-4.91q16.03-.54 32.11.09.6.02 1.05.42 1.98 1.74 1.73 4.46a.78.77-87.6 0 0 .77.84h.96q.5 0 .5-.5v-18.26q0-.52-.51-.5l-1.1.04a.57.56 88 0 0-.54.59q.19 5.12-4.83 5.15-5.74.04-11.57-.05a.66.66 0 0 1-.63-.52c-.51-2.41.18-3.98 2.39-5.29 8.75-5.18 19.01-8.59 17-21.42a.76.76 0 0 0-1.42-.23c-3.35 6.38-13.57 12.09-19.83 15.45q-.47.25-.67-.24Zm-354.57 6.7L4.59 305.01a1.55 1.55 0 0 0 0 2.84l33.98 14.77a.33.33 0 0 1-.13.63H10.01c-3.21 0-5.3-.93-4.7-4.55a.66.66 0 0 0-.57-.76l-1.13-.14q-.61-.08-.61.54v17.82q0 .68.67.61l1.04-.11q.61-.06.52-.66c-.55-3.69 1.54-4.71 4.85-4.87q14.95-.68 29.92-.92 5.1-.08 4.75 4.87-.05.67.62.67h1q.63 0 .63-.63v-11.58q0-.52-.48-.73L15.47 309.2a.32.32 0 0 1 0-.58l31.05-14.39a.85.84-12.9 0 0 .48-.76v-11.36q0-.64-.64-.62l-.89.04a.8.79 86 0 0-.76.88c.4 3.87-1.9 4.91-5.35 4.86q-9.69-.13-28.93-1.67-3.58-.29-4.99-2.29a1.35 1.33 33.5 0 1-.22-1.05q.23-1.18-.55-1.95a.98.98 0 0 0-1.67.7v14.74q0 .5.5.5h.96a.59.59 0 0 0 .59-.6q-.03-2.68 1.41-4.82a1.23 1.2-77.8 0 1 .8-.53c9.11-1.58 20.15-.26 29.6.09a.28.28 0 0 1 .11.53Zm374.604 54.474a23.33 22.53 28.7 0 0-9.645-30.966 23.33 22.53 28.7 0 0-31.283 8.558 23.33 22.53 28.7 0 0 9.645 30.966 23.33 22.53 28.7 0 0 31.283-8.558ZM46.61 360.83c-12.48-5-25.26-9.56-37.88-14.28q-3.61-1.35-3.81-5.4-.04-.65-.68-.65h-.88a.64.63-.4 0 0-.64.64l.17 13.81a.56.56 0 0 0 .56.55h.95q.43 0 .5-.42l.54-3.11a1.68 1.67-76.2 0 1 2.16-1.31l10.36 3.31q.54.17.54.73v11.58q0 .55-.52.76l-10.02 3.91q-1.89.74-2.35-1.23l-.53-2.21q-.12-.52-.65-.61l-.44-.07q-.74-.12-.74.63v16.75q0 .52.52.52h1.04a.68.68 0 0 0 .68-.7c-.05-3.15 1.95-4.66 4.84-5.81q18.43-7.32 36.23-13.91a1.87 1.86-44.2 0 0 .05-3.48Zm355.34-.32c2.05 1.07 5.74 2.99 6.3 5.4.71 3.07.11 14.16-2.26 16.51-1.94 1.92-4.91 1-7.37.7q-12.72-1.59-25.37-3.62-5.32-.86-4.48-5.81a.7.7 0 0 0-.53-.79l-.85-.19q-.52-.12-.6.42l-2.61 18.14a.86.86 0 0 0 .85.98h.7q.7 0 .72-.7.11-4.83 4.55-4.43 7.58.66 27.75 3.87 4.05.65 6.15 1.67a1.06 1.05-79.8 0 1 .6.87l.35 4.06q.05.48.5.65l.62.23q.64.23.73-.44l5.06-35.46a.69.69 0 0 0-.45-.75l-9.39-3.51a1.21 1.2 68.9 0 0-.97 2.2Zm-38.01 76.3c10.19 9.48 26.77 8.04 34.25-4.15q6.07-9.9 5.23-22.26-.03-.45-.46-.56-5.74-1.43-11.27-3.57-3.14-1.21-2.4-3.94a.69.68 15.9 0 0-.47-.84l-.92-.26a.63.63 0 0 0-.78.41l-5.49 16.71q-.16.49.31.72l.89.44q.54.26.79-.28c1.26-2.75 1.97-6.51 6.2-5.29 2.84.83 11.12 2.39 10.23 6.57q-3.26 15.23-19.13 13.81c-7.9-.71-16.64-4.47-20.04-11.78-3.85-8.28 1.79-20.85 12.67-19.55q.66.08.79-.58l.2-1.06q.11-.59-.47-.72l-9.62-2.12q-.51-.11-.8.32c-7.71 11.4-10.92 27.56.29 37.98ZM63.474 420.766a23.3 22.52-8.5 0 0-26.373-18.829 23.3 22.52-8.5 0 0-19.715 25.717 23.3 22.52-8.5 0 0 26.373 18.829 23.3 22.52-8.5 0 0 19.715-25.717Zm2.156 34.364c2.36 1.22 3.19 2.79 2.62 5.55-2.19 10.66-4.98 18.7 5.19 26.44a.94.94 0 0 0 1.42-1.16c-2.75-5.64-.67-17.74.75-24.93q.11-.52.62-.38 10.94 3.01 15.44-6.17c3.03-6.17-1.85-11.93-6.45-15.7q-6.91-5.65-13.75-11.34-.47-.4-.84.1l-.64.87a.54.53-55 0 0 .13.77q4.05 2.72 1.09 6.53-4.74 6.09-18.75 22.52c-2.32 2.72-4.69 4.44-7.68 1.39q-.49-.51-1.02-.04l-.64.56a.7.69-45.7 0 0 .01 1.06q6.62 5.43 13.17 10.95.57.48.99.54.9.15 1.03-1.14a1.39 1.38-70.2 0 0-.6-1.28c-2.36-1.61-2-3.49-.46-5.63q3.56-4.93 7.68-9.39.3-.33.69-.12Zm288.39.68a7.48 7.48 0 0 0-7.48-7.48 7.48 7.48 0 0 0-7.48 7.48 7.48 7.48 0 0 0 7.48 7.48 7.48 7.48 0 0 0 7.48-7.48Zm-51.18 7.51c3.02-1.63 4.55-.36 6.16 2.19q10 15.84 15.48 25.01 2.86 4.79-1.47 7.06-.59.31-.29.9l.4.8q.3.6.87.25l15.58-9.61a.5.5 0 0 0 .07-.79l-.93-.83a.67.66 46.8 0 0-.86-.03q-3.52 2.78-5.8-.56-5.18-7.58-16.51-26.74-2.62-4.43 1.72-6.56a.53.53 0 0 0 .22-.76l-.55-.86a.64.63 58 0 0-.88-.21l-15.26 9.45q-.43.26-.26.73.26.74.91.92.48.13 1.4-.36Zm-190.97-.95c4.99 2.32 12.99 5.73 9.16 13.03q-.27.52.21.86l1.03.74a.53.52-59.8 0 0 .78-.21l4.06-8.5a.61.6-62.1 0 0-.24-.79l-25.58-14.54q-.68-.39-1.04.3l-.44.85a.56.55 23.9 0 0 .3.77c3.77 1.43 3.24 4.22 1.58 7.23q-7 12.7-14.3 25.26-2.79 4.8-7.42 1.65a.54.54 0 0 0-.71.08l-.69.75a.64.64 0 0 0 .15.99l27.91 15.89a.67.66-54.2 0 0 .82-.14l6.77-7.6q.42-.47-.02-.92l-.59-.59a.64.63 51.1 0 0-.78-.09l-6.43 4.04q-.53.33-1.14.17c-3.15-.84-13.82-4.66-11.44-9.55q2.35-4.8 6.94-12.47.27-.45.74-.23c3.49 1.67 10.8 4.18 7.84 9.36a1.24 1.24 0 0 0 .54 1.74l.57.27q.57.28.89-.27l6.48-11.41q.33-.58-.26-.88l-1.15-.59a.6.59-64.3 0 0-.81.29c-2.65 5.88-9.2.54-12.51-1.49a.55.54-58.9 0 1-.18-.74l7.25-12.72q.6-1.06 1.71-.54Zm188.4 26.53q2.17 1.05 3.04 3.29a.64.64 0 0 0 .92.32l1.08-.65q.57-.33.27-.92l-5.79-11.27a1.22 1.22 0 0 0-2.31.56c.01 2.21 2.27 3.9-.67 5.81q-3.53 2.29-7.44 4.01-.56.25-.83-.3l-6.91-13.44a.63.63 0 0 1 .22-.82q4.95-3.32 10.68-4.96.45-.13.89.03c2.28.87 4.1 3.73 5.49 4.18q.78.25 1.42-.43a.79.79 0 0 0 .1-.96l-4.75-7.74q-.29-.48-.79-.22l-26.35 13.51q-.6.31-.21.85l.65.9q.37.52.89.14 3.52-2.55 5.72.91 3.72 5.88 15.26 29.99a1.25 1.24-47.6 0 1 .04.96q-1.06 2.8-3.96 3.9a.42.42 0 0 0-.22.59l.59 1.08a.55.55 0 0 0 .73.23l28.56-14.64q.49-.24.34-.77l-2.66-9.9q-.2-.74-.91-.45l-1.19.47a.63.63 0 0 0-.36.77c1.27 4.08.75 7.96-3.03 10.45-2.7 1.78-9.16 6.2-11.57 1.93q-3.5-6.23-6.66-12.63-.25-.51.27-.76l8.37-4.02q.54-.26 1.08 0Zm-163.59-6.04 1.11 36.17a1.35 1.35 0 0 0 2.31.92l26.35-26.19a.3.3 0 0 1 .5.32q-5.03 13.24-10.37 26.49-1.61 4.01-5.2 2.89-.87-.27-1.23-.21-.83.13-.86 1.13a.81.81 0 0 0 .51.78l16.3 6.54q.71.29.93-.45l.25-.86q.17-.59-.42-.74c-3.85-.93-3.91-3.47-2.75-6.77q7.25-20.7 10.45-28.32 1.78-4.24 6.1-2.07a.75.74 23.8 0 0 1.03-.39l.35-.93q.2-.52-.32-.73l-11.05-4.43q-.47-.18-.83.17l-24.06 23.85a.43.43 0 0 1-.73-.28l-1.71-34.14q-.02-.53-.52-.73l-10.65-4.28q-.73-.29-.83.49l-.1.71q-.08.59.45.85c5.58 2.73 2.98 5.93 1.3 9.96q-5.22 12.51-11.71 24.46c-1.36 2.51-3.25 3.11-5.85 2.08a.64.64 0 0 0-.8.31l-.38.74q-.3.6.33.85l13.69 5.47q.55.22.85-.3l.34-.58q.29-.51-.21-.83c-1.68-1.07-5.05-2.66-4.05-5.29q5.12-13.55 11.16-26.73a.17.17 0 0 1 .32.07Zm141.34 22.15c-.94-15.32-14.2-23.62-28.73-18.5q-4.91 1.73-21.53 8.4-.67.27-.25.85l.58.81q.32.46.83.2c2.77-1.41 4.63-.14 5.76 2.52q5.71 13.53 10.81 27.33c1.3 3.52 1.48 6.28-2.79 7.34a.63.63 0 0 0-.44.81l.31.92q.21.64.84.39c14.26-5.52 35.82-11.18 34.61-31.07Zm-63.81 15.43a7.48 7.48 0 0 0-7.48-7.48 7.48 7.48 0 0 0-7.48 7.48 7.48 7.48 0 0 0 7.48 7.48 7.48 7.48 0 0 0 7.48-7.48Z"/><path fill="#231f20" d="M98.29 0h2.25c23.68.64 37.23 19.83 34.4 42.5-5.89 47.19-78.68 38.9-71.61-10.58C65.98 13.34 79.4 1.56 98.29 0ZM87.94 64.81q8.4 6.31 17.85 3.73c19.1-5.23 17.77-34.29 11.97-48.23C113.45 9.94 103.35 1.42 91.51 5.9c-20.27 7.66-18.26 47.88-3.57 58.91ZM234.3 0h3.27c49.77 4.18 42.98 77.72-5.76 73.77C186.98 70.15 189.18 2.85 234.3 0Zm-16.58 14.82c-9.89 16.55-5.05 58.86 23.32 53.94 25.78-4.47 21.01-62.88-5.99-63.9-7.6-.28-13.37 3.33-17.33 9.96ZM349.46 57.23c7.61-18.51 14.95-37.19 22.81-55.59a2.61 2.61 0 0 1 4.83.08q9.82 25.24 20.25 51.7c2.99 7.6 4.67 14.86 14.25 14.86a.87.87 0 0 1 .81 1.19q-.39 1 .11 1.98a.57.56-13.4 0 1-.51.82l-29.91-.06q-.6 0-.6-.61v-2.8q0-.5.5-.52c3.45-.13 7.51-.31 6.51-4.79q-.88-3.99-6.72-16.88a.62.61-11.8 0 0-.56-.36h-19.97q-.51 0-.7.48-3.94 9.91-5.74 16.57c-1.26 4.64 4.09 4.87 7.57 5.08q.61.03.61.64v2.6q0 .63-.62.63H337q-.75 0-.75-.75v-2.53a.75.75 0 0 1 .72-.75c7.18-.34 9.81-4.45 12.49-10.99Zm13.19-16.87a.32.32 0 0 0 .3.43l16.44-.08a.32.32 0 0 0 .3-.43l-8.34-22.53a.32.32 0 0 0-.6.01l-8.1 22.6Z"/><path fill="#231f20" d="m58.23 52.83 2.91.47q.57.09.46.67L58 71.47a.99.98 5.7 0 1-.97.78H2.48a.54.54 0 0 1-.54-.51l-.13-2.66a.58.58 0 0 1 .5-.61c8.59-1.15 10.99-.79 11.07-10.78q.17-19.85.12-39.69c-.02-8.9-.4-11.85-10.14-12.38q-.61-.04-.61-.64v-2.6q0-.63.62-.63h32.88q.5 0 .5.5v2.74q0 .49-.5.54c-4.01.33-9.4.19-10.39 5.29q-.75 3.9-.6 9.71c.34 12.82.26 25.64.27 38.46.01 9.96 8.37 8.37 15.46 8.19 9.92-.25 14.05-4.57 16.45-13.83q.16-.62.79-.52ZM171.57 35.05q5.2-9.42 12.2-25.26.78-1.76-.06-2.68-.49-.54-2.09-.77-2.4-.36-4.8-.71-.57-.08-.57-.66V2.38q0-.63.63-.63h25.87q.5 0 .5.5v2.98q0 .57-.56.54-6.96-.31-10.59 5.05-8.23 12.15-15.28 24.99c-1.33 2.43-2.39 4.45-2.57 7.33q-.57 9.4.13 18.79c.45 5.99 6.03 6.04 11.3 6.45a.61.61 0 0 1 .57.61v2.76q0 .5-.5.5h-34.78q-.47 0-.49-.47l-.08-2.91a.46.46 0 0 1 .43-.47c5.12-.45 10.29-.46 10.95-6.14.32-2.8 1.48-17.2-1.05-21.86q-8.23-15.17-17.2-29.89c-2.61-4.29-5.69-4.15-9.69-4.96q-.51-.1-.47-.62l.18-2.72q.03-.46.5-.46h29.45q.5 0 .5.5v2.74a.65.65 0 0 1-.56.64l-5.48.78a2.12 2.12 0 0 0-1.55 3.14l14.44 25.5q.36.65.72 0ZM300.48 19.56q-.08 17.07-.01 34.12c.01 3.28-.46 9.01 1.93 11.55 2.65 2.81 11.68 2.12 15.66 1.83 8.85-.64 12.24-5.8 14.46-13.7q.16-.59.77-.49l2.83.47q.62.1.49.72l-3.59 17.4q-.17.79-.98.79H277.5q-.5 0-.5-.5V69q0-.68.67-.69c6.78-.08 10.58-1.04 10.68-8.32q.3-21.87.15-43.74c-.06-8.21-1.56-10.27-10.1-10.57a.67.67 0 0 1-.65-.67V2.5q0-.75.75-.75h32.62q.63 0 .63.63v2.58q0 .59-.58.62c-11.46.66-10.64 4.15-10.69 13.98Z"/><path fill="#fff" d="M87.94 64.81C73.25 53.78 71.24 13.56 91.51 5.9c11.84-4.48 21.94 4.04 26.25 14.41 5.8 13.94 7.13 43-11.97 48.23q-9.45 2.58-17.85-3.73ZM241.04 68.76c-28.37 4.92-33.21-37.39-23.32-53.94 3.96-6.63 9.73-10.24 17.33-9.96 27 1.02 31.77 59.43 5.99 63.9ZM362.65 40.36l8.1-22.6a.32.32 0 0 1 .6-.01l8.34 22.53a.32.32 0 0 1-.3.43l-16.44.08a.32.32 0 0 1-.3-.43Z"/><path fill="#231f20" d="M152.7 101.87c4.58 1.48 13.11 1.54 12.86 8.52-.37 10.16-14.92 8.32-19.86 3.02q-.43-.46.09-.83l2.95-2.09q.49-.35.88.12c2.16 2.62 9.31 5.08 11.07 1.1 2.75-6.22-16.02-1.8-13.71-12.52 1.83-8.46 13.91-6.86 18.14-1.63q.3.38-.07.68l-2.72 2.19a.62.62 0 0 1-.89-.12q-3.48-4.82-8.61-2.3-2.17 1.07-.83 3.31a1.32 1.31-6.6 0 0 .7.55ZM249.91 101.51c-3.67 9.65 7.3 17.44 10.98 7.88q.2-.53.73-.31l3.18 1.35q.52.22.28.73-2.81 5.98-8.8 6.5c-15.93 1.38-16.18-25.32-.02-24.43q6.29.35 8.39 6.7.17.53-.36.68l-3.27.91q-.6.17-.75-.44c-1.42-5.65-8.49-4.5-10.36.43ZM321.03 97.84c-5.77 2.5-6.13 13.5.54 15.4q4.71 1.34 7-3.9.19-.45.65-.26l3.25 1.38q.48.21.26.68-3.91 8.23-13.23 6.15c-11.15-2.49-10.14-24.39 3.76-24.07q6.69.15 9.04 6.68.19.53-.35.68l-3.35.99a.53.53 0 0 1-.66-.37c-.87-3.28-3.83-4.69-6.91-3.36ZM377.88 116.23c-11.89 5.84-20.47-7.35-14.82-17.16 4.46-7.76 15.51-7.98 19.27.52q.21.47-.25.69l-3.13 1.47a.6.58 66.9 0 1-.8-.33c-2.18-5.81-9.06-5.48-11.14.27-3.78 10.49 8.78 17.03 11.48 7.22a.53.52 7.6 0 0-.51-.66h-4.73q-.5 0-.5-.5V105q0-.5.5-.5h8.65q.64 0 .64.64l-.06 11.62q0 .49-.49.49h-1.84q-.53 0-.98-.28-.31-.2-.4-.41-.27-.64-.89-.33Z"/><path fill="#231f20" d="M400.575 117.898a12.38 11.26 90.9 0 1-11.064-12.555 12.38 11.26 90.9 0 1 11.453-12.202 12.38 11.26 90.9 0 1 11.065 12.556 12.38 11.26 90.9 0 1-11.454 12.201Zm.477-4.282a8.15 6.69 88.3 0 0 6.445-8.344 8.15 6.69 88.3 0 0-6.929-7.948 8.15 6.69 88.3 0 0-6.445 8.344 8.15 6.69 88.3 0 0 6.929 7.948ZM18.24 103.68q.28-4.7.29-9.44 0-.49.49-.49h3.21q.5 0 .5.5c.04 4.38 1.07 15.9-.95 19.39C18 120.2 4.4 119.28 4.18 110q-.18-7.85-.21-15.71 0-.54.54-.54h3.24q.53 0 .53.54-.12 7.06.07 14.11c.12 4.36 3.24 6.04 7.22 4.63 4.02-1.43 2.48-6.09 2.67-9.35ZM36.88 117.25h-3.83a.3.3 0 0 1-.3-.3v-22.9a.3.3 0 0 1 .3-.3h3.49a.3.3 0 0 1 .26.14l9.55 15.29a.3.3 0 0 0 .56-.17l-.45-14.95a.3.3 0 0 1 .3-.31h3.69a.3.3 0 0 1 .3.3v22.9a.3.3 0 0 1-.3.3h-3.31a.3.3 0 0 1-.26-.14l-9.59-15.35a.3.3 0 0 0-.56.17l.45 15.01a.3.3 0 0 1-.3.31Z"/><rect width="4.24" height="23.5" x="60.75" y="93.74" fill="#231f20" rx=".31"/><path fill="#231f20" d="m81.37 111.02 4.69-17.04a.31.31 0 0 1 .3-.23h3.95a.31.31 0 0 1 .3.39l-6.5 22.88a.31.31 0 0 1-.29.23h-5.48a.31.31 0 0 1-.3-.22l-6.69-22.88a.31.31 0 0 1 .29-.4h4.05a.31.31 0 0 1 .29.23l4.79 17.05a.31.31 0 0 0 .6-.01ZM100.99 107.27l.08 5.65a.34.34 0 0 0 .34.33h12.5a.34.34 0 0 1 .34.34v3.32a.34.34 0 0 1-.34.34H97.09a.34.34 0 0 1-.34-.34V94.09a.34.34 0 0 1 .34-.34h15.83a.34.34 0 0 1 .34.33l.09 3.32a.34.34 0 0 1-.34.35h-11.67a.34.34 0 0 0-.34.35l.17 4.82a.34.34 0 0 0 .34.33h10.4a.34.34 0 0 1 .34.34v3.3a.34.34 0 0 1-.35.34l-10.56-.31a.34.34 0 0 0-.35.35ZM135.24 108.3l4.57 8.4q.3.55-.32.55h-3.92q-.52 0-.76-.45l-4.24-7.83q-.26-.47-.79-.47h-2.53q-.75 0-.75.75v7.5q0 .5-.5.5h-3.25q-.5 0-.5-.5V94.27q0-.45.45-.47c4.11-.18 10.75-.7 13.98 1.52 4.23 2.92 3.61 9.69-1.21 12.22q-.5.27-.23.76Zm-8.74-10.25.02 6.38a.33.33 0 0 0 .33.33l4.43-.01a3.5 3.08-.2 0 0 3.49-3.09v-.88a3.5 3.08-.2 0 0-3.51-3.07l-4.43.01a.33.33 0 0 0-.33.33Z"/><rect width="4.24" height="23.5" x="174.25" y="93.74" fill="#231f20" rx=".31"/><path fill="#231f20" d="M196 98.34v18.56a.35.35 0 0 1-.35.35h-3.8a.35.35 0 0 1-.35-.35V98.18a.35.35 0 0 0-.35-.35l-5.49.04a.35.35 0 0 1-.35-.33l-.2-3.42a.35.35 0 0 1 .35-.37h16.44a.35.35 0 0 1 .35.35v3.33a.35.35 0 0 1-.34.35l-5.57.21a.35.35 0 0 0-.34.35ZM217.54 102.85l4.45-8.52q.3-.58.96-.58h3.78q.57 0 .3.5-3.19 5.72-6.4 11.42c-1.81 3.24-1.16 7.43-1.12 11q.01.58-.57.58h-3.41q-.61 0-.58-.61c.18-3.83.66-7.7-1.32-11.19q-3.1-5.48-6.04-11.01-.37-.69.42-.69h3.67q.51 0 .74.46l4.49 8.64q.31.6.63 0ZM285.63 106.5h-9.07a.37.37 0 0 0-.37.37l.09 10.01a.37.37 0 0 1-.37.37h-3.79a.37.37 0 0 1-.37-.37V94.12a.37.37 0 0 1 .37-.37h3.72a.37.37 0 0 1 .37.37l-.01 8.01a.37.37 0 0 0 .37.37h9.06a.37.37 0 0 0 .37-.37v-8.01a.37.37 0 0 1 .37-.37h3.76a.37.37 0 0 1 .37.37v22.76a.37.37 0 0 1-.37.37h-3.76a.37.37 0 0 1-.37-.37v-10.01a.37.37 0 0 0-.37-.37Z"/><rect width="4.24" height="23.5" x="300.5" y="93.75" fill="#231f20" rx=".42"/><path fill="#231f20" d="m342.13 113.09-1.05 3.82a.46.46 0 0 1-.44.34h-3.82a.46.46 0 0 1-.44-.61l7.6-22.58a.46.46 0 0 1 .44-.31h4.34a.46.46 0 0 1 .44.31l7.68 22.58a.46.46 0 0 1-.43.61h-3.76a.46.46 0 0 1-.45-.33l-1.11-3.84a.46.46 0 0 0-.45-.33h-8.11a.46.46 0 0 0-.44.34Zm4.39-14.07-2.84 9.22q-.15.51.38.51h5.12q.5 0 .36-.48l-2.64-9.25a.2.2 0 0 0-.38 0Z"/><ellipse fill="#fff" rx="8.15" ry="6.69" transform="rotate(88.3 146.082 259.176)"/><path fill="#fff" d="M126.5 98.05a.33.33 0 0 1 .33-.33l4.43-.01a3.5 3.08-.2 0 1 3.51 3.07v.88a3.5 3.08-.2 0 1-3.49 3.09l-4.43.01a.33.33 0 0 1-.33-.33l-.02-6.38ZM346.52 99.02a.2.2 0 0 1 .38 0l2.64 9.25q.14.48-.36.48h-5.12q-.53 0-.38-.51l2.84-9.22Z"/><path fill="#231f20" d="m377.78 150.89 33.85 14.76a1.51 1.51 0 0 1 0 2.77l-32.71 14.25a.26.26 0 0 0 .1.5q12.96.37 26.06.35c3.99-.01 6.43-1.16 5.82-5.6a.59.59 0 0 1 .59-.67h1.22q.55 0 .55.55-.03 7.01.01 13.99 0 1.01-.42 1.33-.49.38-1.43.06a.64.63 10.3 0 1-.44-.63q.11-4.16-3.72-4.57-15.44-1.69-30.95-1.89-4.8-.06-5.02 4.53-.05.88-.42 1.17-.4.31-1.02.21-.6-.1-.6-.71v-11.28q0-.64.58-.91l30.69-14.18a.42.42 0 0 0-.01-.76l-30.98-13.58q-.34-.15-.34-.52l.09-11.96q0-.63.63-.61l.9.04q.57.02.52.59-.44 5.09 4.73 5 13.58-.22 27.14-.68c4.42-.15 7.96.32 7.82-5.06q-.02-.63.61-.63h1q.62 0 .62.63v17.37q0 .75-.75.75h-1.05a.54.54 0 0 1-.53-.63c.6-3.74-1.45-4.54-4.73-4.6q-14.18-.26-28.32.14-1.12.03-.09.48ZM18.06 151.85l-10.19-3.41a1.87 1.86 14.2 0 0-2.43 1.45l-.5 2.93q-.08.43-.52.43h-.67q-.75 0-.75-.75v-13.66a.62.61 3 0 1 .68-.61l1 .1a.72.72 0 0 1 .64.74q-.14 3.7 2.45 4.74 19.4 7.76 38.79 15.15a1.88 1.88 0 0 1-.02 3.52q-16.39 5.94-33.73 12.43c-4.65 1.74-6.74 2.17-7.77 6.86q-.31 1.42-1.68.46-.36-.24-.36-.68v-16.62q0-.59.58-.47l.92.17a.78.77 2.1 0 1 .62.66l.31 2.29a1.53 1.52-13.9 0 0 2.04 1.22l10.48-3.92q.55-.21.55-.79v-11.62q0-.47-.44-.62Zm17.45 6.03-13.06-4.6q-.7-.24-.7.5v9.12q0 .56.53.38l13.23-4.71q.96-.35 0-.69ZM328.22 247.5h16.97q.57 0 .57.57-.03 51.88 0 103.67 0 13.73-1.13 19.93c-10.23 55.94-86.95 88.44-134.42 101.38q-1.96.53-3.93-.01c-49.64-13.73-129.91-47.64-135.2-108.79q-.27-3.13-.3-19.99-.16-101.28.14-203.21 0-.87.87-.87l135.28-.04q.43 0 .43.43v15.71a.38.38 0 0 0 .62.29l19.01-15.99q.39-.33.91-.33h19.48q.97 0 .26.65l-39.62 36.85q-.38.36-.38.89l-.08 15.79q0 .54.39.18l58.48-53.99a1.28 1.25-66.1 0 1 .87-.35l19.56-.07a.27.27 0 0 1 .18.47l-79.17 73.23q-.41.38-.42.94l-.13 15.92a.33.33 0 0 0 .55.24l97.98-90.51a1.89 1.86-65.7 0 1 1.26-.49h19q.58 0 .15.39L208.35 246.95q-.61.55.21.55h18.22q.63 0 1.09-.42l117.32-106.46a.34.34 0 0 1 .56.25v18.58q0 .61-.45 1.02l-94.49 86.57a.27.26 23.8 0 0 .18.46h17.49q.41 0 .71-.28l76.01-69.73a.33.33 0 0 1 .55.24v18.51q0 .51-.38.86l-54.55 49.95a.26.26 0 0 0 .17.45h17.04a1.37 1.36-65.7 0 0 .91-.35l36.21-32.82a.36.36 0 0 1 .6.26v15.21q0 .52-.38.88l-17.35 16.3q-.56.52.2.52Zm-205.46-21.76c5.24-2.21 7.15-7.66 5.11-12.81-3.75-9.47-19.54-9.7-24.87-1.51-3.29 5.05-1.15 11.57 4.4 14.32q.69.34-.01.65-8.21 3.52-7.28 11.72c1.46 12.89 22.99 13.72 28.84 3.83 3.53-5.95.3-13.27-6.17-15.46a.4.4 0 0 1-.02-.74Zm71.63 19.5c12.05-8.87 9.99-39.9-9.1-39.27-18.49.62-20.65 29.42-9.19 38.82 5.02 4.11 13.09 4.27 18.29.45ZM78.64 215.59a.38.38 0 0 0 .39.44l3.33-.12a.38.38 0 0 1 .39.38v30.83a.38.38 0 0 0 .38.38h9.24a.38.38 0 0 0 .38-.38v-39.49a.38.38 0 0 0-.38-.38h-11.9a.38.38 0 0 0-.38.31l-1.45 8.03Zm73.2 1.39a.35.35 0 0 1 .3.53l-17.21 29.46a.35.35 0 0 0 .3.53h11.49a.35.35 0 0 0 .31-.18l21.95-39.3a.35.35 0 0 0-.31-.52h-32.48a.35.35 0 0 0-.35.35l.08 8.83a.35.35 0 0 0 .35.35l15.57-.05Zm-40.82 136.49q-.19-6.67 1.36-13.09c1.41-5.86 5.1-11.37 5.18-18.36.12-9.85-8.5-14.04-17.11-12.09q-2.09.47-3.51 2.06-.51.57.26.6c9.41.29.26 20.11-1.39 24.65q-2.74 7.56-2.91 10.58c-.59 10.56 7.43 17.57 17.91 15.72a.56.56 0 0 1 .65.45l.79 4.26q.09.5-.41.5c-6.63.01-12.26-.67-12.3 7.92q-.07 13-.03 24.12a6.99 6.99 0 0 0 6.99 6.96h11.82a.77.77 0 0 0 .74-.99q-1.84-6.17-8-8.21-.56-.18-.56-.77v-11.26q0-.51.5-.51 6.12-.04 12.23-.01c6.9.03 10.75-8.59 12.38-14.31q.14-.47.62-.41l4.74.54q.71.08.39.72l-7.33 14.28q-.25.49.15.86l15.34 14.61q.35.34.33.82l-.14 3.61q-.02.53.51.53h15.06q4.3 0 1.29-3.07c-2.74-2.8-6.14-4.14-8.62-6.8q-4.72-5.06-9.32-10.05a2.28 2.28 0 0 1 1.08-3.74c3.92-1.06 8.09-2.41 11.01-5.24 11.02-10.67 2.73-27.93-13.33-24.45a.89.89 0 0 1-1.01-1.21l7.15-17.5q.2-.51-.11-.96l-5.14-7.5a.29.29 0 0 1 .4-.41l5.86 3.79q.44.28.96.19l17.76-3.22a.58.57 76.2 0 1 .66.41c.85 3.04 2.86 14.69 8.81 11.48q.41-.23.39-.7c-.36-6.44 1.28-13.53-2.9-18.32-4.24-4.87-14.26-5.18-20.38-4.67-1.69.14-3-.74-3.14-2.45a.58.57-2.3 0 1 .58-.62l10.39.12q.49.01.86-.3l9.3-7.68a1.54 1.53 24 0 1 .92-.35c5.47-.19 12.32-.92 11.47-8.44q-.17-1.57-1.86-1.43c-5.61.48-11.98-.95-17.24 1.53q-7.67 3.6-14.52 8.65-.43.31-.49-.22-.95-8.06 4.73-12.9c3.67-3.12 10.3-3.39 12.3-8.27a.53.53 0 0 0-.67-.7l-9.22 3.23q-.46.16-.57-.32c-1.76-7.96 15.54-4.98 14.01-14.58q-.07-.46-.53-.41l-10.3 1.05a.99.97-23.4 0 1-.83-.32c-4.27-4.86-9.01-2.42-13.61.29a.41.41 0 0 1-.62-.41l1.56-11.97q.14-1.05-.65-.34c-3.96 3.55-7.54 8.93-10.46 12.9-12.15 16.52-20.12 45.1-17.34 65.45q.08.52-.39.78-9.59 5.27-12.16 15.94-.3 1.24-.34-.04Zm192.64.28q-2.65-10.84-12.29-16.21-.44-.25-.38-.75c2.22-18.44-3.1-38.37-11.11-54.99-4.15-8.59-10.18-16.22-16.51-23.42a.52.52 0 0 0-.91.42l1.71 12.22q.07.51-.39.27c-4.97-2.63-9.44-5.48-14.04-.45q-.36.39-.88.34l-10.05-1.05a.71.7 5.7 0 0-.78.63c-.98 9.16 15.69 6.72 14.12 14.18q-.11.56-.66.38l-8.83-2.99a.79.78 79.4 0 0-.85 1.25c3.78 4.56 8.96 4.49 12.89 8.2q4.93 4.66 4.13 12.1-.06.59-.56.27c-4.38-2.82-13.86-9.8-18.78-9.88q-6.86-.1-13.91.02-.54 0-.68.52c-2.26 8.05 5.6 8.77 11.44 9.26a1.43 1.43 0 0 1 .78.32l9.12 7.57q.43.36.99.35l10.48-.09q.67 0 .57.66c-.29 1.91-1.95 2.51-3.83 2.38-5.8-.41-14.45-.07-18.86 3.7-5.03 4.29-3.91 11.98-3.81 19.52a.69.68-80.7 0 0 .45.63c6.19 2.18 7.88-7.87 8.72-11.57q.13-.58.72-.47l17.68 3.26a1.22 1.2 34 0 0 .87-.16l5.93-3.77q1.08-.69.36.37l-4.95 7.32q-.42.62-.13 1.32l7.07 17.34a.74.74 0 0 1-.79 1.01c-4.88-.73-13.59.11-16.01 5.03q-6.38 12.96 4 20.81c2.75 2.08 6.47 3 9.82 4.25a2.1 2.1 0 0 1 .81 3.39q-4.71 5.12-9.63 10.39c-2.75 2.93-8.75 4.56-9.31 8.95a.59.59 0 0 0 .59.67h16.4a.66.66 0 0 0 .66-.71l-.25-3.29a.96.95-23.6 0 1 .3-.76l15.67-14.92q.31-.29.11-.68l-7.47-14.52a.39.39 0 0 1 .31-.56l4.82-.5q.48-.04.63.41c1.4 4.22 4.03 10.5 8.2 13.1 3.53 2.21 12.34 1.14 16.66 1.21a.49.49 0 0 1 .48.49v11.23q0 .54-.51.7-6.31 2.09-8.2 8.36a.73.73 0 0 0 .7.94h12.04a6.93 6.93 0 0 0 6.93-6.92q.01-11.71-.28-25.34c-.16-7.39-6.97-6.72-12.07-6.77q-.54-.01-.45-.55l.65-3.91q.08-.47.56-.49c2.58-.08 5.49.24 7.81-.43 9.84-2.85 12.36-14.03 8.81-22.59-2.14-5.17-12.72-28.35-2.69-28.08a.49.49 0 0 0 .29-.9c-7.32-4.87-19.51-2.03-20.57 7.99-.79 7.37 2.54 13.56 4.96 20.28q1.53 4.26 1.31 13.69a.07.06-52.5 0 1-.13.02Zm-97.36-26.58-18.12 18.08a1.47 1.44-22.9 0 0-.43 1.03v4.47q0 .75.75.75h1.5q.5 0 .5-.5v-3.81a1.23 1.23 0 0 1 .36-.87l16.26-16.64q.44-.45.89 0l16.38 16.76q.36.36.36.87V351q0 .5.5.5h1.52a.53.53 0 0 0 .53-.53v-5.21a.56.54-68 0 0-.16-.39l-17.47-17.69q-.36-.36-.36-.87l-.35-54.81a.84.82-20.3 0 1 .32-.67c3.84-3.05-2.72-7.55-4.08-2.61-.29 1.04.25 1.83.92 2.56q.38.4.38.96v54.45a.68.67-22.8 0 1-.2.48Zm-28.88 30.4q.34.15.34.51c-.02 8.74-1.29 20.74 1.31 28.85 9.14 28.57 48.44 28.52 57.1-.14 2.36-7.82 1.31-19.46 1.34-28.57q0-.51.46-.74c2.78-1.33 3.6-5.73-.48-5.69q-3.27.03-5.98-.11-.91-.05-1.08.83c-.68 3.44-1.5 6.59-5.88 5.29q-3.27-.98-2.56-5.17a.97.96-85.2 0 0-.95-1.13h-27.08a.77.77 0 0 0-.76.9c.41 2.35-.43 4.9-2.98 5.56-4.4 1.14-4.92-2.7-5.28-5.86q-.06-.53-.6-.53l-7.4.02a2.27 2.26 83.9 0 0-2.2 2.74q.49 2.33 2.68 3.24Z"/><path fill="#fff" d="M35.51 157.88q.96.34 0 .69l-13.23 4.71q-.53.18-.53-.38v-9.12q0-.74.7-.5l13.06 4.6Z"/><path fill="#231f20" d="M5.03 185.59c.11 3.92 1.46 5.26 5.41 5.31q16.8.23 29.47-.05c3.3-.08 5.21-1.45 4.94-4.9a.42.42 0 0 1 .42-.45h1q.56 0 .59.57.55 14.79-.22 25.33c-1.22 16.7-19.13 23.89-32.51 15.31-13.41-8.59-11.3-26.87-11.08-41.23q.01-.48.49-.48h.89q.59 0 .6.59Zm37.77 13.24q-15.55-.26-31.53-.02c-2.87.04-5.02.53-5.32 3.68-1.41 15.12 12.09 21.03 24.95 18.37 11.14-2.3 14.21-10.42 13.17-20.86a1.3 1.29-2.2 0 0-1.27-1.17ZM398.05 227.85l9.92 3.33q2.68.91 2.94-1.92l.19-2.13a.7.69-87.3 0 1 .69-.63h.96q.5 0 .5.5v13.79q0 .48-.45.66-.68.28-1.19-.09-.34-.25-.48-.95c-.87-4.34-3.62-4.93-8.11-6.68q-16.7-6.55-33.41-12.94a1.91 1.9 45.5 0 1 .03-3.57q18.47-6.71 37.81-13.97 3.31-1.24 3.63-5.21.07-.84.9-.71l.79.13a.58.56-86 0 1 .48.57v16.47q0 .47-.43.66-.85.38-1.42-.19c-1.22-1.24.25-3.46-2.05-4.04a1.43 1.4-48.1 0 0-.79.05l-10.19 3.8q-.52.2-.54.75l-.31 11.56a.79.78-80.5 0 0 .53.76Zm-4.4-11.32-13.1 4.61a.35.34-44.4 0 0-.01.65l13.32 4.74q.39.14.39-.27l.01-9.3q0-.64-.61-.43Z"/><path fill="#fff" d="M42.8 198.83a1.3 1.29-2.2 0 1 1.27 1.17c1.04 10.44-2.03 18.56-13.17 20.86-12.86 2.66-26.36-3.25-24.95-18.37.3-3.15 2.45-3.64 5.32-3.68q15.98-.24 31.53.02ZM122.76 225.74a.4.4 0 0 0 .02.74c6.47 2.19 9.7 9.51 6.17 15.46-5.85 9.89-27.38 9.06-28.84-3.83q-.93-8.2 7.28-11.72.7-.31.01-.65c-5.55-2.75-7.69-9.27-4.4-14.32 5.33-8.19 21.12-7.96 24.87 1.51 2.04 5.15.13 10.6-5.11 12.81Zm-3.18-8.5a4.47 4.47 0 0 0-4.47-4.47 4.47 4.47 0 0 0-4.47 4.47 4.47 4.47 0 0 0 4.47 4.47 4.47 4.47 0 0 0 4.47-4.47Zm.44 18.1a4.9 4.9 0 0 0-4.9-4.9 4.9 4.9 0 0 0-4.9 4.9 4.9 4.9 0 0 0 4.9 4.9 4.9 4.9 0 0 0 4.9-4.9ZM185.29 205.97c19.09-.63 21.15 30.4 9.1 39.27-5.2 3.82-13.27 3.66-18.29-.45-11.46-9.4-9.3-38.2 9.19-38.82Zm.22 33.3a12.25 6.5 90 0 0 6.5-12.25 12.25 6.5 90 0 0-6.5-12.25 12.25 6.5 90 0 0-6.5 12.25 12.25 6.5 90 0 0 6.5 12.25ZM78.64 215.59l1.45-8.03a.38.38 0 0 1 .38-.31h11.9a.38.38 0 0 1 .38.38v39.49a.38.38 0 0 1-.38.38h-9.24a.38.38 0 0 1-.38-.38v-30.83a.38.38 0 0 0-.39-.38l-3.33.12a.38.38 0 0 1-.39-.44ZM151.84 216.98l-15.57.05a.35.35 0 0 1-.35-.35l-.08-8.83a.35.35 0 0 1 .35-.35h32.48a.35.35 0 0 1 .31.52l-21.95 39.3a.35.35 0 0 1-.31.18h-11.49a.35.35 0 0 1-.3-.53l17.21-29.46a.35.35 0 0 0-.3-.53Z"/><circle cx="115.11" cy="217.24" r="4.47" fill="#231f20"/><ellipse fill="#231f20" rx="12.25" ry="6.5" transform="rotate(90 -20.755 206.265)"/><path fill="#fff" d="m394.26 216.96-.01 9.3q0 .41-.39.27l-13.32-4.74a.35.34-44.4 0 1 .01-.65l13.1-4.61q.61-.21.61.43Z"/><circle cx="115.12" cy="235.34" r="4.9" fill="#231f20"/><path fill="#231f20" d="M371.25 245.58c-.19 4.89 3.06 4.98 6.94 5.02q18.59.23 28.54-.14c3.15-.12 4.63-1.98 4.37-5a.42.42 0 0 1 .42-.46h1.01a.71.71 0 0 1 .71.71q.02 8.55.01 17.08 0 .91-.43 1.27-.49.39-1.23.13-.49-.18-.47-.7.19-5.14-5.12-5.19-14.75-.13-29.5 0-5.52.05-5.3 5.21.03.58-.55.65l-.72.1q-.68.1-.68-.59V245.5q0-.5.5-.5h.95q.58 0 .55.58Z"/><circle cx="25.46" cy="257.91" r="7.48" fill="#231f20"/><path fill="#fff" d="M111.36 353.51q2.57-10.67 12.16-15.94.47-.26.39-.78c-2.78-20.35 5.19-48.93 17.34-65.45 2.92-3.97 6.5-9.35 10.46-12.9q.79-.71.65.34l-1.56 11.97a.41.41 0 0 0 .62.41c4.6-2.71 9.34-5.15 13.61-.29a.99.97-23.4 0 0 .83.32l10.3-1.05q.46-.05.53.41c1.53 9.6-15.77 6.62-14.01 14.58q.11.48.57.32l9.22-3.23a.53.53 0 0 1 .67.7c-2 4.88-8.63 5.15-12.3 8.27q-5.68 4.84-4.73 12.9.06.53.49.22 6.85-5.05 14.52-8.65c5.26-2.48 11.63-1.05 17.24-1.53q1.69-.14 1.86 1.43c.85 7.52-6 8.25-11.47 8.44a1.54 1.53 24 0 0-.92.35l-9.3 7.68q-.37.31-.86.3l-10.39-.12a.58.57-2.3 0 0-.58.62c.14 1.71 1.45 2.59 3.14 2.45 6.12-.51 16.14-.2 20.38 4.67 4.18 4.79 2.54 11.88 2.9 18.32q.02.47-.39.7c-5.95 3.21-7.96-8.44-8.81-11.48a.58.57 76.2 0 0-.66-.41l-17.76 3.22q-.52.09-.96-.19l-5.86-3.79a.29.29 0 0 0-.4.41l5.14 7.5q.31.45.11.96l-7.15 17.5a.89.89 0 0 0 1.01 1.21c16.06-3.48 24.35 13.78 13.33 24.45-2.92 2.83-7.09 4.18-11.01 5.24a2.28 2.28 0 0 0-1.08 3.74q4.6 4.99 9.32 10.05c2.48 2.66 5.88 4 8.62 6.8q3.01 3.07-1.29 3.07h-15.06q-.53 0-.51-.53l.14-3.61q.02-.48-.33-.82l-15.34-14.61q-.4-.37-.15-.86l7.33-14.28q.32-.64-.39-.72l-4.74-.54q-.48-.06-.62.41c-1.63 5.72-5.48 14.34-12.38 14.31q-6.11-.03-12.23.01-.5 0-.5.51v11.26q0 .59.56.77 6.16 2.04 8 8.21a.77.77 0 0 1-.74.99H106.5a6.99 6.99 0 0 1-6.99-6.96q-.04-11.12.03-24.12c.04-8.59 5.67-7.91 12.3-7.92q.5 0 .41-.5l-.79-4.26a.56.56 0 0 0-.65-.45c-10.48 1.85-18.5-5.16-17.91-15.72q.17-3.02 2.91-10.58c1.65-4.54 10.8-24.36 1.39-24.65q-.77-.03-.26-.6 1.42-1.59 3.51-2.06c8.61-1.95 17.23 2.24 17.11 12.09-.08 6.99-3.77 12.5-5.18 18.36q-1.55 6.42-1.36 13.09.04 1.28.34.04Zm51.36-79.58c-.66-3.59-4.76-.73-6.57.12q-.96.45.1.45h5.99q.58 0 .48-.57ZM303.79 353.73q.22-9.43-1.31-13.69c-2.42-6.72-5.75-12.91-4.96-20.28 1.06-10.02 13.25-12.86 20.57-7.99a.49.49 0 0 1-.29.9c-10.03-.27.55 22.91 2.69 28.08 3.55 8.56 1.03 19.74-8.81 22.59-2.32.67-5.23.35-7.81.43q-.48.02-.56.49l-.65 3.91q-.09.54.45.55c5.1.05 11.91-.62 12.07 6.77q.29 13.63.28 25.34a6.93 6.93 0 0 1-6.93 6.92h-12.04a.73.73 0 0 1-.7-.94q1.89-6.27 8.2-8.36.51-.16.51-.7v-11.23a.49.49 0 0 0-.48-.49c-4.32-.07-13.13 1-16.66-1.21-4.17-2.6-6.8-8.88-8.2-13.1q-.15-.45-.63-.41l-4.82.5a.39.39 0 0 0-.31.56l7.47 14.52q.2.39-.11.68l-15.67 14.92a.96.95-23.6 0 0-.3.76l.25 3.29a.66.66 0 0 1-.66.71h-16.4a.59.59 0 0 1-.59-.67c.56-4.39 6.56-6.02 9.31-8.95q4.92-5.27 9.63-10.39a2.1 2.1 0 0 0-.81-3.39c-3.35-1.25-7.07-2.17-9.82-4.25q-10.38-7.85-4-20.81c2.42-4.92 11.13-5.76 16.01-5.03a.74.74 0 0 0 .79-1.01l-7.07-17.34q-.29-.7.13-1.32l4.95-7.32q.72-1.06-.36-.37l-5.93 3.77a1.22 1.2 34 0 1-.87.16l-17.68-3.26q-.59-.11-.72.47c-.84 3.7-2.53 13.75-8.72 11.57a.69.68-80.7 0 1-.45-.63c-.1-7.54-1.22-15.23 3.81-19.52 4.41-3.77 13.06-4.11 18.86-3.7 1.88.13 3.54-.47 3.83-2.38q.1-.66-.57-.66l-10.48.09q-.56.01-.99-.35l-9.12-7.57a1.43 1.43 0 0 0-.78-.32c-5.84-.49-13.7-1.21-11.44-9.26q.14-.52.68-.52 7.05-.12 13.91-.02c4.92.08 14.4 7.06 18.78 9.88q.5.32.56-.27.8-7.44-4.13-12.1c-3.93-3.71-9.11-3.64-12.89-8.2a.79.78 79.4 0 1 .85-1.25l8.83 2.99q.55.18.66-.38c1.57-7.46-15.1-5.02-14.12-14.18a.71.7 5.7 0 1 .78-.63l10.05 1.05q.52.05.88-.34c4.6-5.03 9.07-2.18 14.04.45q.46.24.39-.27l-1.71-12.22a.52.52 0 0 1 .91-.42c6.33 7.2 12.36 14.83 16.51 23.42 8.01 16.62 13.33 36.55 11.11 54.99q-.06.5.38.75 9.64 5.37 12.29 16.21a.07.06-52.5 0 0 .13-.02Zm-44.66-79.57-5.31-2.13a.61.61 0 0 0-.74.24l-.97 1.56a.44.44 0 0 0 .38.68l6.59-.04a.16.16 0 0 0 .05-.31ZM188.18 345.25l18.12-18.08a.68.67-22.8 0 0 .2-.48v-54.45q0-.56-.38-.96c-.67-.73-1.21-1.52-.92-2.56 1.36-4.94 7.92-.44 4.08 2.61a.84.82-20.3 0 0-.32.67l.35 54.81q0 .51.36.87l17.47 17.69a.56.54-68 0 1 .16.39v5.21a.53.53 0 0 1-.53.53h-1.52q-.5 0-.5-.5v-3.69q0-.51-.36-.87l-16.38-16.76q-.45-.45-.89 0l-16.26 16.64a1.23 1.23 0 0 0-.36.87V351q0 .5-.5.5h-1.5q-.75 0-.75-.75v-4.47a1.47 1.44-22.9 0 1 .43-1.03Z"/><path fill="#231f20" d="M392.21 284.46c6.26-3.36 16.48-9.07 19.83-15.45a.76.76 0 0 1 1.42.23c2.01 12.83-8.25 16.24-17 21.42-2.21 1.31-2.9 2.88-2.39 5.29a.66.66 0 0 0 .63.52q5.83.09 11.57.05 5.02-.03 4.83-5.15a.57.56 88 0 1 .54-.59l1.1-.04q.51-.02.51.5v18.26q0 .5-.5.5h-.96a.78.77-87.6 0 1-.77-.84q.25-2.72-1.73-4.46-.45-.4-1.05-.42-16.08-.63-32.11-.09c-3.24.11-5.23 1.46-4.82 4.91a.59.58 86.9 0 1-.58.65h-.75q-.76 0-.76-.76.06-10.62.06-21.23c-.01-14.22 17.12-16.05 22.26-3.54q.2.49.67.24Zm-19.44 12.02 17.88.04a.82.82 0 0 0 .82-.82l.01-2.91a8.68 8.53.1 0 0-8.67-8.55h-2.16a8.68 8.53.1 0 0-8.69 8.51l-.01 2.91a.82.82 0 0 0 .82.82ZM162.72 273.93q.1.57-.48.57h-5.99q-1.06 0-.1-.45c1.81-.85 5.91-3.71 6.57-.12ZM259.13 274.16a.16.16 0 0 1-.05.31l-6.59.04a.44.44 0 0 1-.38-.68l.97-1.56a.61.61 0 0 1 .74-.24l5.31 2.13ZM36.97 290.92a.28.28 0 0 0-.11-.53c-9.45-.35-20.49-1.67-29.6-.09a1.23 1.2-77.8 0 0-.8.53q-1.44 2.14-1.41 4.82a.59.59 0 0 1-.59.6H3.5q-.5 0-.5-.5v-14.74a.98.98 0 0 1 1.67-.7q.78.77.55 1.95a1.35 1.33 33.5 0 0 .22 1.05q1.41 2 4.99 2.29 19.24 1.54 28.93 1.67c3.45.05 5.75-.99 5.35-4.86a.8.79 86 0 1 .76-.88l.89-.04q.64-.02.64.62v11.36a.85.84-12.9 0 1-.48.76l-31.05 14.39a.32.32 0 0 0 0 .58l31.05 13.61q.48.21.48.73v11.58q0 .63-.63.63h-1q-.67 0-.62-.67.35-4.95-4.75-4.87-14.97.24-29.92.92c-3.31.16-5.4 1.18-4.85 4.87q.09.6-.52.66l-1.04.11q-.67.07-.67-.61v-17.82q0-.62.61-.54l1.13.14a.66.66 0 0 1 .57.76c-.6 3.62 1.49 4.55 4.7 4.55h28.43a.33.33 0 0 0 .13-.63L4.59 307.85a1.55 1.55 0 0 1 0-2.84l32.38-14.09Z"/><path fill="#fff" d="M372.77 296.48a.82.82 0 0 1-.82-.82l.01-2.91a8.68 8.53.1 0 1 8.69-8.51h2.16a8.68 8.53.1 0 1 8.67 8.55l-.01 2.91a.82.82 0 0 1-.82.82l-17.88-.04Z"/><path fill="#231f20" d="M411.574 345.394a23.33 22.53 28.7 0 1-31.283 8.558 23.33 22.53 28.7 0 1-9.645-30.966 23.33 22.53 28.7 0 1 31.283-8.558 23.33 22.53 28.7 0 1 9.645 30.966ZM371.1 333.15c-2.76 19.98 45.18 19.9 39.82-2.32-3.26-13.55-37.45-14.82-39.82 2.32Z"/><path fill="#fff" d="M410.92 330.83c5.36 22.22-42.58 22.3-39.82 2.32 2.37-17.14 36.56-15.87 39.82-2.32Z"/><path fill="#231f20" d="M8.73 346.55c12.62 4.72 25.4 9.28 37.88 14.28a1.87 1.86-44.2 0 1-.05 3.48q-17.8 6.59-36.23 13.91c-2.89 1.15-4.89 2.66-4.84 5.81a.68.68 0 0 1-.68.7H3.77q-.52 0-.52-.52v-16.75q0-.75.74-.63l.44.07q.53.09.65.61l.53 2.21q.46 1.97 2.35 1.23l10.02-3.91q.52-.21.52-.76V354.7q0-.56-.54-.73L7.6 350.66a1.68 1.67-76.2 0 0-2.16 1.31l-.54 3.11q-.07.42-.5.42h-.95a.56.56 0 0 1-.56-.55l-.17-13.81a.64.63-.4 0 1 .64-.64h.88q.64 0 .68.65.2 4.05 3.81 5.4Zm13.34 8.68a.3.3 0 0 0-.4.29l.16 9.63a.3.3 0 0 0 .4.28l13.52-5.03a.3.3 0 0 0-.01-.57l-13.67-4.6Z"/><path fill="#fff" d="M177.42 357.57q-2.19-.91-2.68-3.24a2.27 2.26 83.9 0 1 2.2-2.74l7.4-.02q.54 0 .6.53c.36 3.16.88 7 5.28 5.86 2.55-.66 3.39-3.21 2.98-5.56a.77.77 0 0 1 .76-.9h27.08a.97.96-85.2 0 1 .95 1.13q-.71 4.19 2.56 5.17c4.38 1.3 5.2-1.85 5.88-5.29q.17-.88 1.08-.83 2.71.14 5.98.11c4.08-.04 3.26 4.36.48 5.69q-.46.23-.46.74c-.03 9.11 1.02 20.75-1.34 28.57-8.66 28.66-47.96 28.71-57.1.14-2.6-8.11-1.33-20.11-1.31-28.85q0-.36-.34-.51ZM22.07 355.23l13.67 4.6a.3.3 0 0 1 .01.57l-13.52 5.03a.3.3 0 0 1-.4-.28l-.16-9.63a.3.3 0 0 1 .4-.29Z"/><path fill="#231f20" d="M401.95 360.51a1.21 1.2 68.9 0 1 .97-2.2l9.39 3.51a.69.69 0 0 1 .45.75l-5.06 35.46q-.09.67-.73.44l-.62-.23q-.45-.17-.5-.65l-.35-4.06a1.06 1.05-79.8 0 0-.6-.87q-2.1-1.02-6.15-1.67-20.17-3.21-27.75-3.87-4.44-.4-4.55 4.43-.02.7-.72.7h-.7a.86.86 0 0 1-.85-.98l2.61-18.14q.08-.54.6-.42l.85.19a.7.7 0 0 1 .53.79q-.84 4.95 4.48 5.81 12.65 2.03 25.37 3.62c2.46.3 5.43 1.22 7.37-.7 2.37-2.35 2.97-13.44 2.26-16.51-.56-2.41-4.25-4.33-6.3-5.4ZM0 396v-3.86q6.22 2.44 13.57.21 22.29-6.76 28.44-8.83c6.31-2.13 1.96-4.84 3.45-7.21q.34-.55 1.17-.52.43.02.56.43l5.38 17.22a.62.62 0 0 1-.54.8l-.93.07a.6.6 0 0 1-.63-.44c-1-3.77-3.93-3.58-7.15-2.57q-18.52 5.8-26.8 8.2Q6.98 402.25 0 396ZM363.94 436.81c-11.21-10.42-8-26.58-.29-37.98q.29-.43.8-.32l9.62 2.12q.58.13.47.72l-.2 1.06q-.13.66-.79.58c-10.88-1.3-16.52 11.27-12.67 19.55 3.4 7.31 12.14 11.07 20.04 11.78q15.87 1.42 19.13-13.81c.89-4.18-7.39-5.74-10.23-6.57-4.23-1.22-4.94 2.54-6.2 5.29q-.25.54-.79.28l-.89-.44q-.47-.23-.31-.72l5.49-16.71a.63.63 0 0 1 .78-.41l.92.26a.69.68 15.9 0 1 .47.84q-.74 2.73 2.4 3.94 5.53 2.14 11.27 3.57.43.11.46.56.84 12.36-5.23 22.26c-7.48 12.19-24.06 13.63-34.25 4.15ZM63.474 420.766a23.3 22.52-8.5 0 1-19.715 25.717 23.3 22.52-8.5 0 1-26.373-18.829A23.3 22.52-8.5 0 1 37.1 401.937a23.3 22.52-8.5 0 1 26.373 18.829ZM31.88 440.78c11.7 1.78 32.85-14.84 25.54-27.47-9.7-16.79-43.87 7.28-33.16 22.54q2.97 4.22 7.62 4.93Z"/><path fill="#fff" d="M24.26 435.85c-10.71-15.26 23.46-39.33 33.16-22.54 7.31 12.63-13.84 29.25-25.54 27.47q-4.65-.71-7.62-4.93Z"/><path fill="#231f20" d="M64.94 455.25q-4.12 4.46-7.68 9.39c-1.54 2.14-1.9 4.02.46 5.63a1.39 1.38-70.2 0 1 .6 1.28q-.13 1.29-1.03 1.14-.42-.06-.99-.54-6.55-5.52-13.17-10.95a.7.69-45.7 0 1-.01-1.06l.64-.56q.53-.47 1.02.04c2.99 3.05 5.36 1.33 7.68-1.39q14.01-16.43 18.75-22.52 2.96-3.81-1.09-6.53a.54.53-55 0 1-.13-.77l.64-.87q.37-.5.84-.1 6.84 5.69 13.75 11.34c4.6 3.77 9.48 9.53 6.45 15.7q-4.5 9.18-15.44 6.17-.51-.14-.62.38c-1.42 7.19-3.5 19.29-.75 24.93a.94.94 0 0 1-1.42 1.16c-10.17-7.74-7.38-15.78-5.19-26.44.57-2.76-.26-4.33-2.62-5.55q-.39-.21-.69.12Zm13.9-16.63-11.18 13.23a1.18 1.18 0 0 0 .14 1.66l1.6 1.35a9.19 9.08-49.8 0 0 12.87-1.15l.84-1a9.19 9.08-49.8 0 0-1-12.88l-1.61-1.35a1.18 1.18 0 0 0-1.66.14Z"/><path fill="#fff" d="M78.84 438.62a1.18 1.18 0 0 1 1.66-.14l1.61 1.35a9.19 9.08-49.8 0 1 1 12.88l-.84 1a9.19 9.08-49.8 0 1-12.87 1.15l-1.6-1.35a1.18 1.18 0 0 1-.14-1.66l11.18-13.23Z"/><circle cx="346.54" cy="455.81" r="7.48" fill="#231f20"/><path fill="#231f20" d="M309 465.51c-1.61-2.55-3.14-3.82-6.16-2.19q-.92.49-1.4.36-.65-.18-.91-.92-.17-.47.26-.73l15.26-9.45a.64.63 58 0 1 .88.21l.55.86a.53.53 0 0 1-.22.76q-4.34 2.13-1.72 6.56 11.33 19.16 16.51 26.74 2.28 3.34 5.8.56a.67.66 46.8 0 1 .86.03l.93.83a.5.5 0 0 1-.07.79l-15.58 9.61q-.57.35-.87-.25l-.4-.8q-.3-.59.29-.9 4.33-2.27 1.47-7.06-5.48-9.17-15.48-25.01ZM111.87 462.37q-1.11-.52-1.71.54l-7.25 12.72a.55.54-58.9 0 0 .18.74c3.31 2.03 9.86 7.37 12.51 1.49a.6.59-64.3 0 1 .81-.29l1.15.59q.59.3.26.88l-6.48 11.41q-.32.55-.89.27l-.57-.27a1.24 1.24 0 0 1-.54-1.74c2.96-5.18-4.35-7.69-7.84-9.36q-.47-.22-.74.23-4.59 7.67-6.94 12.47c-2.38 4.89 8.29 8.71 11.44 9.55q.61.16 1.14-.17l6.43-4.04a.64.63 51.1 0 1 .78.09l.59.59q.44.45.02.92l-6.77 7.6a.67.66-54.2 0 1-.82.14l-27.91-15.89a.64.64 0 0 1-.15-.99l.69-.75a.54.54 0 0 1 .71-.08q4.63 3.15 7.42-1.65 7.3-12.56 14.3-25.26c1.66-3.01 2.19-5.8-1.58-7.23a.56.55 23.9 0 1-.3-.77l.44-.85q.36-.69 1.04-.3l25.58 14.54a.61.6-62.1 0 1 .24.79l-4.06 8.5a.53.52-59.8 0 1-.78.21l-1.03-.74q-.48-.34-.21-.86c3.83-7.3-4.17-10.71-9.16-13.03ZM299.19 488.9l-8.37 4.02q-.52.25-.27.76 3.16 6.4 6.66 12.63c2.41 4.27 8.87-.15 11.57-1.93 3.78-2.49 4.3-6.37 3.03-10.45a.63.63 0 0 1 .36-.77l1.19-.47q.71-.29.91.45l2.66 9.9q.15.53-.34.77l-28.56 14.64a.55.55 0 0 1-.73-.23l-.59-1.08a.42.42 0 0 1 .22-.59q2.9-1.1 3.96-3.9a1.25 1.24-47.6 0 0-.04-.96q-11.54-24.11-15.26-29.99-2.2-3.46-5.72-.91-.52.38-.89-.14l-.65-.9q-.39-.54.21-.85l26.35-13.51q.5-.26.79.22l4.75 7.74a.79.79 0 0 1-.1.96q-.64.68-1.42.43c-1.39-.45-3.21-3.31-5.49-4.18q-.44-.16-.89-.03-5.73 1.64-10.68 4.96a.63.63 0 0 0-.22.82l6.91 13.44q.27.55.83.3 3.91-1.72 7.44-4.01c2.94-1.91.68-3.6.67-5.81a1.22 1.22 0 0 1 2.31-.56l5.79 11.27q.3.59-.27.92l-1.08.65a.64.64 0 0 1-.92-.32q-.87-2.24-3.04-3.29-.54-.26-1.08 0ZM136.68 482.86a.17.17 0 0 0-.32-.07q-6.04 13.18-11.16 26.73c-1 2.63 2.37 4.22 4.05 5.29q.5.32.21.83l-.34.58q-.3.52-.85.3l-13.69-5.47q-.63-.25-.33-.85l.38-.74a.64.64 0 0 1 .8-.31c2.6 1.03 4.49.43 5.85-2.08q6.49-11.95 11.71-24.46c1.68-4.03 4.28-7.23-1.3-9.96q-.53-.26-.45-.85l.1-.71q.1-.78.83-.49l10.65 4.28q.5.2.52.73l1.71 34.14a.43.43 0 0 0 .73.28l24.06-23.85q.36-.35.83-.17l11.05 4.43q.52.21.32.73l-.35.93a.75.74 23.8 0 1-1.03.39q-4.32-2.17-6.1 2.07-3.2 7.62-10.45 28.32c-1.16 3.3-1.1 5.84 2.75 6.77q.59.15.42.74l-.25.86q-.22.74-.93.45l-16.3-6.54a.81.81 0 0 1-.51-.78q.03-1 .86-1.13.36-.06 1.23.21 3.59 1.12 5.2-2.89 5.34-13.25 10.37-26.49a.3.3 0 0 0-.5-.32l-26.35 26.19a1.35 1.35 0 0 1-2.31-.92l-1.11-36.17Z"/><path fill="#231f20" d="M249.29 486.51c14.53-5.12 27.79 3.18 28.73 18.5 1.21 19.89-20.35 25.55-34.61 31.07q-.63.25-.84-.39l-.31-.92a.63.63 0 0 1 .44-.81c4.27-1.06 4.09-3.82 2.79-7.34q-5.1-13.8-10.81-27.33c-1.13-2.66-2.99-3.93-5.76-2.52q-.51.26-.83-.2l-.58-.81q-.42-.58.25-.85 16.62-6.67 21.53-8.4Zm19.8 16.71c-4.49-13.11-16.22-18.47-28.25-9.97q-.42.29-.23.77 6.21 15.26 12.93 30.3c1.02 2.29 2.86 3.36 5.22 2.44q16.22-6.32 10.33-23.54Z"/><path fill="#fff" d="M240.84 493.25c12.03-8.5 23.76-3.14 28.25 9.97q5.89 17.22-10.33 23.54c-2.36.92-4.2-.15-5.22-2.44q-6.72-15.04-12.93-30.3-.19-.48.23-.77Z"/><circle cx="206.73" cy="520.44" r="7.48" fill="#231f20"/></svg>